<?xml version="1.0" encoding="UTF-8"?>
<svg id="Layer_1" data-name="Layer 1" xmlns="http://www.w3.org/2000/svg" version="1.1" xmlns:xlink="http://www.w3.org/1999/xlink" viewBox="0 0 792 612">
  <defs>
    <style>
      .cls-1 {
        fill: #fff;
      }

      .cls-1, .cls-2, .cls-3, .cls-4, .cls-5, .cls-6, .cls-7, .cls-8, .cls-9, .cls-10, .cls-11, .cls-12, .cls-13, .cls-14, .cls-15, .cls-16, .cls-17, .cls-18, .cls-19, .cls-20, .cls-21, .cls-22 {
        stroke-width: 0px;
      }

      .cls-1, .cls-2, .cls-3, .cls-4, .cls-5, .cls-6, .cls-7, .cls-8, .cls-9, .cls-10, .cls-11, .cls-13, .cls-14, .cls-15, .cls-16, .cls-17, .cls-18, .cls-19, .cls-20, .cls-21, .cls-22 {
        fill-rule: evenodd;
      }

      .cls-2 {
        fill: #475183;
      }

      .cls-3, .cls-12 {
        fill: #191952;
      }

      .cls-4 {
        fill: url(#GradientFill_3-2);
      }

      .cls-5 {
        fill: url(#GradientFill_3);
      }

      .cls-6 {
        fill: url(#GradientFill_2);
      }

      .cls-7 {
        fill: #fbe2ff;
      }

      .cls-8 {
        fill: url(#GradientFill_5);
      }

      .cls-9 {
        fill: #fbfcfd;
      }

      .cls-10 {
        fill: #651bc7;
      }

      .cls-11 {
        fill: #9660f5;
      }

      .cls-13 {
        fill: url(#GradientFill_1);
      }

      .cls-14 {
        fill: url(#GradientFill_6);
      }

      .cls-15 {
        fill: #333d72;
      }

      .cls-16 {
        fill: #b76039;
      }

      .cls-17 {
        fill: url(#GradientFill_5-2);
      }

      .cls-18 {
        fill: url(#GradientFill_3-3);
      }

      .cls-19 {
        fill: #6e6991;
      }

      .cls-20 {
        fill: url(#GradientFill_6-2);
      }

      .cls-21 {
        fill: url(#GradientFill_4);
      }

      .cls-22 {
        fill: #e3afa2;
      }
    </style>
    <linearGradient id="GradientFill_1" data-name="GradientFill 1" x1="513.19" y1="296.42" x2="328.58" y2="221.7" gradientUnits="userSpaceOnUse">
      <stop offset="0" stop-color="#fbc19f"/>
      <stop offset="1" stop-color="#fdd2b9"/>
    </linearGradient>
    <linearGradient id="GradientFill_2" data-name="GradientFill 2" x1="420.39" y1="388.28" x2="400.41" y2="134.24" gradientUnits="userSpaceOnUse">
      <stop offset="0" stop-color="#cb6355"/>
      <stop offset="1" stop-color="#d58279"/>
    </linearGradient>
    <linearGradient id="GradientFill_3" data-name="GradientFill 3" x1="193.43" y1="161.12" x2="251.35" y2="161.12" gradientUnits="userSpaceOnUse">
      <stop offset="0" stop-color="#5c3f99"/>
      <stop offset="1" stop-color="#7960a9"/>
    </linearGradient>
    <linearGradient id="GradientFill_4" data-name="GradientFill 4" x1="220.56" y1="196.92" x2="271.8" y2="160.38" gradientUnits="userSpaceOnUse">
      <stop offset="0" stop-color="#c8cbe0"/>
      <stop offset="1" stop-color="#fff"/>
    </linearGradient>
    <linearGradient id="GradientFill_3-2" data-name="GradientFill 3" x1="191.57" y1="220.71" x2="227.36" y2="220.71" xlink:href="#GradientFill_3"/>
    <linearGradient id="GradientFill_3-3" data-name="GradientFill 3" x1="232.16" y1="203.97" x2="289.42" y2="203.97" xlink:href="#GradientFill_3"/>
    <linearGradient id="GradientFill_5" data-name="GradientFill 5" x1="367.19" y1="71.71" x2="367.66" y2="368.65" gradientUnits="userSpaceOnUse">
      <stop offset="0" stop-color="#7960a9"/>
      <stop offset="1" stop-color="#4d449b"/>
    </linearGradient>
    <linearGradient id="GradientFill_6" data-name="GradientFill 6" x1="395.96" y1="348.78" x2="396.07" y2="522" gradientUnits="userSpaceOnUse">
      <stop offset="0" stop-color="#e2d4e9"/>
      <stop offset="1" stop-color="#4d449b"/>
    </linearGradient>
    <linearGradient id="GradientFill_5-2" data-name="GradientFill 5" x1="399.1" y1="348.77" x2="399.2" y2="521.99" xlink:href="#GradientFill_5"/>
    <linearGradient id="GradientFill_6-2" data-name="GradientFill 6" x1="394.21" y1="362.63" x2="394.29" y2="508.85" xlink:href="#GradientFill_6"/>
  </defs>
  <rect class="cls-12" x="47.38" y="5.48" width="697.24" height="601.03"/>
  <g>
    <path class="cls-9" d="M332.51,246.07c1.32.42,2.6.98,3.67,1.73.68.48,1.32,1.1,1.92,1.82-.13-3.8.28-7.69,1.14-11.32-.82-.79-1.58-1.63-2.28-2.5-2.53-3.17-4-6.2-4.75-9.24v7.02h-2.37v-37.15l-.22-.5-.7-1.62.05-6.91c-2.8-12.59-4.91-26.55-4.79-39.41l.02-1.59.6-1.47c1.47-3.61,3.18-7.24,5.05-10.82v-11.26c-1.74-.51-3.01-2.12-3.01-4.03,0-2.32,1.88-4.2,4.2-4.2s4.2,1.88,4.2,4.2c0,1.91-1.27,3.52-3.01,4.03v6.92c1.93-3.41,3.98-6.76,6.1-9.99v-27.27l-5.29-2.74.09-.18v-15.14c-3.36-.56-5.92-3.49-5.92-7.01,0-3.93,3.18-7.11,7.11-7.11s7.11,3.18,7.11,7.11c0,3.52-2.56,6.45-5.93,7.01v13.93l5.28,2.73-.08.16v24.98c.49-.72.99-1.43,1.48-2.13,3.11-4.4,6.47-8.71,10.09-12.82v-14.97c-1.74-.51-3.01-2.12-3.01-4.03,0-2.32,1.88-4.2,4.19-4.2s4.2,1.88,4.2,4.2c0,1.91-1.27,3.51-3.01,4.03v12.35c4.63-5,9.65-9.64,15.05-13.74-.69-.71-1.11-1.69-1.11-2.9,0-2.11,1.88-4.2,4.2-4.2,1.63,0,3.03,1.03,3.73,2.37,5.66-3.58,11.7-6.53,18.12-8.66,7.57-2.52,15.77-4.11,24.16-4.7.62-1.5,2.13-2.71,3.89-2.71,1.66,0,3.09,1.06,3.77,2.44,3.79,0,7.58.22,11.35.64h0c0-2.12,1.88-4.2,4.2-4.2s4.19,2.08,4.19,4.2c0,.46-.06.89-.17,1.28,2.97.59,5.91,1.32,8.79,2.19-.51-.98-.79-2.09-.79-3.26,0-3.93,3.18-7.11,7.11-7.11s7.11,3.18,7.11,7.11c0,2.96-1.81,5.49-4.38,6.56,5.93,2.56,11.49,5.81,16.47,9.79,1.3-.78,2.82-1.22,4.45-1.22,4.81,0,8.7,3.89,8.7,8.7,0,1.76-.52,3.4-1.42,4.77,1.19,1.65,2.31,3.36,3.35,5.16l3.26,5.63-11.42,2.93,3.53,10.78c2.51,2.3,4.92,4.83,7.19,7.46h19.25l11.05-16.34c-1.64-1.79-2.64-4.18-2.64-6.8,0-5.56,4.51-10.08,10.08-10.08s10.08,4.51,10.08,10.08-4.51,10.08-10.08,10.08c-1.67,0-3.24-.41-4.63-1.12l-11.66,17.24v.48h-18.51c.61.77,1.21,1.53,1.8,2.3,8.43,11,15.06,23.86,17.23,37.66l.41,2.63-6.1,12.2c3.29.44,6.67,1.48,9.8,3.04v-36.33h.02l12.99-13.69h0s0-.05,0-.05h34.5v-.39c0-8.74,7.08-15.83,15.82-15.83s15.83,7.09,15.83,15.83-7.09,15.83-15.83,15.83c-6.91,0-12.78-4.43-14.95-10.6h-33.27l-10.29,10.84v37.38c1.1.83,2.14,1.74,3.09,2.72h20.31l11.05-16.34c-1.64-1.79-2.64-4.18-2.64-6.79,0-5.57,4.51-10.08,10.08-10.08s10.08,4.51,10.08,10.08-4.51,10.08-10.08,10.08c-1.67,0-3.24-.41-4.63-1.12l-11.66,17.24v.48h-19.68c.31.48.61.98.88,1.49,1.86,3.49,3.28,7.78,3.8,12.01l34.71-1.41,4.76-4.16h30.81v-.39c0-8.74,7.08-15.83,15.83-15.83s15.83,7.09,15.83,15.83-7.09,15.83-15.83,15.83c-6.91,0-12.78-4.43-14.95-10.6h-30.57l-3.88,3.56-36.51,1.4v.03c5.21,6.9,10.56,13.72,16.15,20.33h3.95c.96-3.91,4.49-6.82,8.7-6.82s7.74,2.9,8.71,6.82h19.14l16.78-16.16,3.62,2.96-19.26,17.5h-20.29c-.96,3.91-4.49,6.82-8.7,6.82-2.27,0-4.33-.84-5.91-2.23,3.55,6.77,6.47,14.96,8.18,23.15h32.28l16.18-14.4h28.44c.6-4.41,4.38-7.81,8.96-7.81,4.99,0,9.04,4.05,9.04,9.04s-4.05,9.04-9.04,9.04c-3.29,0-6.17-1.76-7.75-4.39h-28.25l-16.08,13.63h-32.87c.62,4.26.87,8.45.67,12.34-.11,2.14-.26,4.51-.47,6.99h64.23c.64-1.02,1.77-1.69,3.06-1.69,2,0,3.62,1.62,3.62,3.62s-1.62,3.62-3.62,3.62c-1.29,0-2.42-.68-3.06-1.69h-64.6c-.66,6.06-1.72,12.36-3.48,17.21-.12,3.82-.8,7.84-1.62,11.53-.45,2.01-.97,4-1.56,5.97h18.67l7.03-7.77h38.85l9.13,9.13h23.81v-49.71h-29.29c-.74,1.36-1.81,2.28-3.85,2.28s-4.38-1.96-4.38-4.38,2.32-4.38,4.38-4.38,3.2.99,3.92,2.42h32.42v56.99h-29.48l-7.65-7.65h-36.02l-6.29,8.02h-22.92c-.52,1.42-1.08,2.82-1.68,4.22,1.15.74,2.2,1.64,3.12,2.68,4.11,4.66,8.21,9.33,12.26,14.04h45.35v-.35c0-7.9,6.4-14.3,14.3-14.3s14.3,6.4,14.3,14.3-6.4,14.3-14.3,14.3c-6.24,0-11.55-4-13.5-9.58h-42.4c3.4,4,6.77,8.03,10.09,12.1,7.03,8.63,13.83,17.44,20.56,26.32h14.88c1.58-2.63,4.46-4.39,7.75-4.39,4.99,0,9.04,4.05,9.04,9.04s-4.05,9.04-9.04,9.04c-4.58,0-8.36-3.4-8.96-7.81h-9.23l1.16,1.55c4.56,6.07,3.69,14.58-1.87,19.62l-13.95,20.3c.15.13.3.26.45.39,1.85,1.6,3.22,3.55,4.06,5.69l5.51,3.24c1.58-2.63,3.61-4.39,7.75-4.39s9.04,4.05,9.04,9.04-4.26,9.04-9.04,9.04-8.36-3.4-8.96-7.81l-3.42-2.06c-.07.59-.18,1.17-.32,1.76-.22.91-.31,1.96-.4,2.9-.15,1.6-.26,3.2-.32,4.8-.08,2.15-.12,4.3-.12,6.45,0,3.31.18,6.62.45,9.93.27,3.28.79,6.54,1.55,9.74.74,3.13,1.75,6.19,3.03,9.15,1.08,2.49,2.49,4.8,4.25,6.86,4.3,5.06,4.68,12.24.94,17.72-3.06,4.48-7.48,9.34-11.44,13.02-4.69,4.36-12.2,10.26-19.04,7.89-9.27-3.21-18.55-6.42-27.9-9.38-2.62-.83-4.76-2.27-6.52-4.38-.27-.33-.54-.65-.81-.98-2.74,1.1-5.8,1.32-8.75.55-7.43-1.93-14.87-3.8-22.31-5.67-2.55-.64-5.13-1.18-7.7-1.71-2.22-.46-4.46-.85-6.7-1.23-1.65-.28-3.3-.58-4.96-.82-.83-.12-1.66-.25-2.49-.4-1.77-.32-3.45-.96-4.97-1.9-9.47-1.83-18.98-3.5-28.5-5.02-3.39,2.64-6.77,5.28-10.17,7.91-5.39,4.18-12.93,3.88-17.97-.71-4.12-3.76-8.26-7.5-12.41-11.22-9.52.1-19.04.39-28.55.86-1.26.4-2.57.61-3.89.65-5.72.15-11.44.38-17.09.68-43,3.32-87.33,10.23-129.09,21.48-9.33,2.51-18.57,5.38-27.79,8.28-6.95,2.18-14.65-4.64-19.17-9.15-3.35-3.34-8.39-8.91-10.78-13.02-3.32-5.71-2.45-12.81,2.15-17.53.25-.3.48-.63.71-.94,1.46-1.97,2.73-4.1,3.95-6.22,1.48-2.58,2.71-5.31,3.8-8.08.52-1.34,1.12-3.14,1.12-4.59v-33.25l-12.66,7.61c-.6,4.41-4.17,7.81-8.96,7.81s-9.04-4.05-9.04-9.04,4.9-9.04,9.04-9.04,6.17,1.76,7.75,4.39l13.87-8.16v-3.1c-6.37-.72-12.66-8.4-15.96-13.08-4.66-6.62-9.19-15.62-10-23.75l-.02-.24v-2.46h-1.76c-.6,4.41-4.38,7.81-8.96,7.81-4.99,0-9.04-4.05-9.04-9.04s4.05-9.04,9.04-9.04c3.29,0,6.17,1.76,7.75,4.39h2.96v-37.97c-2.07,5.34-7.26,9.13-13.34,9.13-7.9,0-14.3-6.4-14.3-14.3s6.4-14.3,14.3-14.3,13.82,5.94,14.27,13.43c2.04-5.42,7.22-9.32,13.34-9.46,9.14-.21,18.27-.42,27.41-.61-.88-.96-1.71-1.96-2.47-3.01l-4.82-6.63h-20.5l-6.29-8.02h-27.47l-7.65,7.65h-18.32v-56.99h31.24c.72-1.43,1.85-2.42,3.92-2.42s4.38,1.96,4.38,4.38-2.34,4.38-4.38,4.38-3.1-.92-3.85-2.28h-28.1v49.71h12.65l9.13-9.13h30.31l7.03,7.77h22.9l4.08-1.28c7.44-2.34,14.8-4.93,22.12-7.64,8.95-3.32,18.06-6.81,26.72-10.99-3.17-3.73-6.03-8.13-6.57-12.38-.1-.78-.17-1.59-.21-2.43h-18.13c-.72,3.67-3.95,6.44-7.83,6.44s-7.11-2.77-7.83-6.44h-64.62c-.64,1.02-1.77,1.69-3.06,1.69-2,0-3.62-1.62-3.62-3.62s1.62-3.62,3.62-3.62c1.29,0,2.42.67,3.06,1.69h64.81c.99-3.28,4.04-5.67,7.64-5.67s6.65,2.39,7.64,5.67h18.32c.19-4.94,1.02-10.27,1.77-14.55l.37-2.08,2.14-2.7h-71.13l-16.08-13.63h-28.25c-1.58,2.63-4.46,4.39-7.75,4.39-4.99,0-9.04-4.05-9.04-9.04s4.05-9.04,9.04-9.04c4.58,0,8.36,3.4,8.96,7.81h28.44l16.18,14.4h70.81l.17-3.05c.14-2.37.28-4.73.44-7.09.12-1.69.19-3.39.49-5.06.36-1.98,1.27-4.27,2.24-6.41l-3.74-3.78-18.84,15.26-18.83,5.12-43.41-34.58-.14-3-2.9-2.64,2.67-2.18-.2-4.11c-2.87,2.94-6.88,4.77-11.32,4.77-8.74,0-15.83-7.09-15.83-15.83s7.09-15.83,15.83-15.83c3.89,0,7.45,1.4,10.21,3.73l-.49-10.3,6.16-9.09,5.57-3.2,1.68-8.35,11.78-8.72c-7.16-1.51-12.54-7.87-12.54-15.49,0-8.74,7.09-15.83,15.83-15.83s15.83,7.09,15.83,15.83v.39s1.28,0,1.28,0l3.21-2.37,2.85,2.37h5.38l25.69-17.81,7.67.59-5.59-8.27c-1.39.72-2.96,1.12-4.63,1.12-5.56,0-10.08-4.51-10.08-10.08s4.51-10.08,10.08-10.08,10.08,4.51,10.08,10.08c0,2.62-1,5-2.64,6.8l7.28,10.77,7.14.55,4.71,5.02h13.27v14.12l16,17.04v-37.2l-6.47-3.35.11-.22v-18.54c-4.12-.69-7.25-4.27-7.25-8.58,0-4.81,3.89-8.7,8.7-8.7s8.7,3.89,8.7,8.7c0,4.31-3.14,7.89-7.25,8.58v17.05l6.46,3.34-.1.2v51.29h-2.9v-5.22l-4.05,39.26-10.37,6.89,6.24,7.54,8.75,2.92,1.45,1.56c1.74,1.87,3.38,3.97,4.04,6.43,1.7,1.22,3.11,2.81,3.91,4.81.28.69.5,1.4.68,2.13,1.89,1.37,3.74,3.01,4.88,4.89.59.96,1.05,2.04,1.43,3.14h0ZM332.2,214.2c.35-2.04.8-4.15,1.29-6.37l.74-3.36c-.71-1.12-1.39-2.26-2.02-3.39v13.12h0ZM483.97,86.94c1.78,1.65,3.47,3.4,5.05,5.26.07-.31.1-.62.1-.95,0-2.42-1.96-4.38-4.38-4.38-.26,0-.52.02-.77.07h0ZM559.51,241l.37.42c-.04-.14-.08-.28-.12-.42h-.26ZM180.63,206.76l-.11-2.29c-.8-5.19-5.29-9.17-10.71-9.17-5.99,0-10.84,4.85-10.84,10.84s4.85,10.84,10.84,10.84,10.5-4.52,10.82-10.22h0ZM212.06,148.96l4.39-3.25c1.51-1.86,2.41-4.23,2.41-6.81,0-5.99-4.85-10.84-10.84-10.84s-10.84,4.85-10.84,10.84,4.85,10.84,10.84,10.84c1.43,0,2.79-.28,4.04-.78h0ZM289.6,131.52l6.4,6.81v-6.81h-6.4ZM176.57,465.6c2.12,0,3.83-1.72,3.83-3.83s-1.71-3.83-3.83-3.83-3.83,1.72-3.83,3.83,1.72,3.83,3.83,3.83h0ZM161.5,408.92c2.12,0,3.83-1.72,3.83-3.83s-1.72-3.83-3.83-3.83-3.83,1.72-3.83,3.83,1.72,3.83,3.83,3.83h0ZM158.88,347.49c-5.41,0-9.79,4.38-9.79,9.79s4.38,9.79,9.79,9.79,9.79-4.38,9.79-9.79-4.38-9.79-9.79-9.79h0ZM138.8,251.73c-2.12,0-3.83,1.72-3.83,3.83s1.72,3.83,3.83,3.83,3.83-1.72,3.83-3.83-1.72-3.83-3.83-3.83h0ZM259.7,100.55c-2.37,0-4.3,1.92-4.3,4.3s1.92,4.3,4.3,4.3,4.3-1.92,4.3-4.3-1.92-4.3-4.3-4.3h0ZM310.64,86.87c-2.42,0-4.38,1.96-4.38,4.38s1.96,4.38,4.38,4.38,4.38-1.96,4.38-4.38-1.96-4.38-4.38-4.38h0ZM334.29,63.84c-1.98,0-3.58,1.6-3.58,3.58s1.6,3.58,3.58,3.58,3.58-1.6,3.58-3.58-1.6-3.58-3.58-3.58h0ZM618.81,465.6c2.12,0,3.83-1.72,3.83-3.83s-1.72-3.83-3.83-3.83-3.83,1.72-3.83,3.83,1.72,3.83,3.83,3.83h0ZM633.88,408.92c2.12,0,3.83-1.72,3.83-3.83s-1.72-3.83-3.83-3.83-3.83,1.72-3.83,3.83,1.72,3.83,3.83,3.83h0ZM636.5,347.49c-5.41,0-9.79,4.38-9.79,9.79s4.38,9.79,9.79,9.79,9.79-4.38,9.79-9.79-4.38-9.79-9.79-9.79h0ZM656.58,251.73c-2.12,0-3.83,1.72-3.83,3.83s1.72,3.83,3.83,3.83,3.83-1.72,3.83-3.83-1.72-3.83-3.83-3.83h0ZM570.75,167.63c-2.37,0-4.3,1.92-4.3,4.3s1.92,4.3,4.3,4.3,4.3-1.92,4.3-4.3-1.92-4.3-4.3-4.3h0ZM625.57,195.31c-5.99,0-10.84,4.85-10.84,10.84s4.85,10.84,10.84,10.84,10.84-4.85,10.84-10.84-4.85-10.84-10.84-10.84h0ZM587.36,128.06c-5.99,0-10.84,4.85-10.84,10.84s4.85,10.84,10.84,10.84,10.84-4.85,10.84-10.84-4.85-10.84-10.84-10.84h0ZM535.68,100.55c-2.37,0-4.3,1.92-4.3,4.3s1.92,4.3,4.3,4.3,4.3-1.92,4.3-4.3-1.92-4.3-4.3-4.3h0ZM461.09,63.84c-1.97,0-3.58,1.6-3.58,3.58s1.6,3.58,3.58,3.58,3.58-1.6,3.58-3.58-1.6-3.58-3.58-3.58Z"/>
    <path class="cls-3" d="M195.66,174.62l1.75-8.68,30.75-22.76,5.2,4.33,30.27-20.98,15.65,1.2,31.81,33.86-4.26,41.34-13,8.63,10.64,12.86,8.9,2.96.59.64c1.28,1.37,3.01,3.38,3.01,5.31v.76c1.72.8,3.31,2,3.97,3.65.39.96.65,2.11.8,3.23,1.92,1.24,4.15,2.91,5.12,4.51.75,1.24,1.29,3,1.64,4.65,1.67.34,3.68.89,4.83,1.7,1.65,1.16,3.47,4.86,4.33,6.78l.44.99-.14.71,2.51,2.27c.98-2.34,2.2-4.65,3.46-6.65-1.57-6.03-1.05-13.34.89-19.33-1.52-1.16-2.95-2.57-4.01-3.89-6.32-7.92-4.42-15.06-2.5-23.82,3.17,3.05,5.5,6.06,10.03,7.01l-.92-1.72c-4.65-5.7-10.4-13.58-13.28-20.24l-.29-.66.05-6.43c-2.72-12.08-4.91-26.5-4.79-38.84v-.65s.25-.6.25-.6c4.08-10.02,10.63-21.05,16.82-29.82,12.43-17.59,29.14-33.82,49.97-40.73,32.08-10.65,76.79-3.97,94.95,27.43l-10.22,2.62,5.58,17.04c4.4,3.88,8.82,8.96,12.31,13.51,7.91,10.33,14.23,22.46,16.27,35.42l.17,1.07-7.58,15.15,3.76,2.31.04.57.5-.34,1.25.15c6.94.81,14.77,4.98,18.12,11.26,2.25,4.22,3.95,10.36,3.29,15.44,6.97,9.26,14.34,18.68,22.01,27.3l.23.26.17.3c6.38,11.1,11.03,27.52,10.37,40.21-.37,7.18-1.46,20.19-4.31,27.37-.03,3.66-.76,7.97-1.52,11.41-2.16,9.71-6.22,19.03-11.61,27.38l-5.12,7.94-.45-3.79c-3.18,3.99-6.58,7.89-9.91,11.52-10.15,11.05-22.44,22.17-35.79,29.23l-3.39,1.79-2.54-6.64-2.08,1.01-1.32-.45c-2.99-1.02-6.41-1.94-9.55-2.32-.78-.09-1.92-.24-2.98-.32,3.09,1.91,5.94,4.24,7.86,6.79l.8,1.07-.14,1.33c-.39,3.8-2.61,8.56-4.61,11.71-5.74,9.06-14.93,15.32-24.69,19.4l-2.1.88-15.61-15.61,1.31-4.92-19.79-18.84c-9.42,1.07-20.33.86-29.53-.02-18.35-1.77-37.73-7.14-51.86-19.51l-8.54,3.89-.45.07c-9.87,1.61-20.95,2.22-30.9,2.25-18.06.05-39.21-2.18-55.4-10.7l-1.66-.87-.79-10.46c-9.33-2.65-19.81-8.5-25.32-16.07l-2.78-3.82,4.51-1.42c7.49-2.35,14.99-4.99,22.35-7.72,10.84-4.01,22.73-8.64,33.14-14.21-4.32-4.14-9.23-9.88-9.81-14.41-.69-5.36.56-13.96,1.53-19.37l.15-.84,3.32-4.18c.14-2.83.3-5.66.46-8.49.14-2.34.28-4.69.44-7.03.1-1.43.17-3.12.42-4.52.37-2.05,2-5.59,3.33-8.29l-9.33-9.42-21.5,17.41-15.41,4.19-39.7-31.63-1.99-41.51,4.6-6.79,6.52-3.75Z"/>
    <path class="cls-13" d="M526.92,264.9s-15.68.35-25.11,9.9c-9.43,9.55-8.84,14.73-8.72,16.62.12,1.89,2.71,4.71,2.71,4.71,0,0,11.43-4.6,19.8-3.3,0,0-10.73,1.3-20.75,8.96,0,0,31.56,2.38,36.14,24.26,0,0,11.05-14.31,10.98-17.63-.08-3.32-3.94-7.72-3.94-7.72l-1.47.39s.63-7.17-.19-11.46c-.82-4.29-7.35-21.75-7.35-21.75l-2.11-2.96h0ZM374,160.15h0c-.75,1.14-.98,2.23-1.04,2.99-.23.87-.39,1.74-.28,2.3.3,1.5.61,3.26.61,3.26,0,0,2.6,2.68,2.78,3.83.18,1.15-.13,2.92.13,4.42.27,1.5,8.88,19.93,33.38,21.42,0,0,23.9-8.69,28.35-27.26,0,0-1.45-16.64-12.24-36.54l1.14-1.38s-6.21-5.32-17.47-8.26l1,2.41s-4.62-2.01-8.68-1.77c0,0-2.23,15.98-19.62,25.4l2.34.82.14,1.9s2.88,1.42,3.93,2.84c0,0-6.09-1.32-10.18.4,0,0,.07,0,.19-.01-.63.18-1.25.44-1.84.8-1.25.76-2.09,1.61-2.64,2.44h0ZM289.71,234.08l4.13-2.23,3.3-.14,2.18-1.21,9.57,1.39,2.18,2.09.28,3.34-7.66-.14-11.29,6.32-3.07-4.04.37-5.39h0ZM294.38,245.81l.48,3.1h3.1l.64,3.1,1.92-1.92,5.23-1.82,6.57-4.59,4.27.05-.91-3.85-7.53-1.55-1.5,1.01-3.9.32-8.39,6.14h0ZM300.33,253.8l4.3-1.74,6.48-6.04,9.09-.37,2.18,4.42-1.25,1.37-3.61-.44-5.92,6.1-5.98,1.99-4.98-1.81-.31-3.49h0ZM328.85,256.52l-5.77-2.58-3.92.22-1.23,1.91-9.75,5.77,1.23,4.04,5.32,2.97,6.45-4.48,4.93-1.85,5.32-1.35-.45-1.79-2.13-2.86h0ZM416.77,360.15l-3.05-4.8-3.61-1.93-2.43,2.55-.25,7.6-.81,3.92s.62,3.8,2.37,4.73c1.74.93,3.74-.81,3.74-.81l-.31-1.81,4.36-9.47h0ZM419.28,364.24s3.68,1.59,4.88,3.36c1.2,1.77,2.85,4.94,2.85,4.94,0,0-4.44,7.35-5.45,7.79-1.01.44-4.31,1.08-4.31,1.08,0,0-5.51-1.65-5.58-2.03-.06-.38.38-2.28.38-2.28l5.7-9.38,1.52-3.48h0ZM429.36,372.73s-5.8,8.68-6.15,9.72c-.35,1.04,1.24,4.51,1.24,4.51,0,0,3.17.89,5.01.64,1.83-.25,5.51-3.17,5.51-3.17l2.48-5.11s-1.29-1.59-2.48-2.98c-1.19-1.39-5.6-3.62-5.6-3.62h0ZM440.06,379.9s6.87-.1,7.46.24c.58.34,3.41,2.88,3.41,2.88,0,0-4.63,7.56-6.92,8.97-2.29,1.41-6.73,3.9-7.02,3.56-.29-.34-4.68-3.12-4.63-4.1.05-.97,1.36-3.61,1.36-3.61l1.61-1.17,4.73-6.78h0ZM405.44,181.08s4.45-2.21,6.29-4.42c1.84-2.21,2.14-3.91,2.14-3.91,0,0,1.84.2,1.64,2.04-.2,1.84-5.22,6.26-10.07,6.29h0ZM401.54,182.83c.34.29-3.37,1.86-4.86,1.69-1.49-.17-4.09-1.8-1.66-1.63,2.43.17,6.52-.06,6.52-.06h0ZM388.68,157.92s3.44,5.62,3.8,7.34c.35,1.72-2.13,4.26-2.13,4.26,0,0,1.77-3.8-1.67-11.6h0ZM390.76,171.23s-.08,1.59-.34,2.89c0,0,3.06,2.81,6.99,3.18,0,0-5.55.99-9.13-2.64,0,0,1.09-2.47,2.47-3.43h0ZM394.17,173.76s2.23-.61,2.86-.39c.63.22,1.07,1.54.94,1.93-.14.39-1.46.58-1.46.58,0,0-.19-2.29-2.34-2.12h0ZM427.25,191.02c1.3-.09-3.55,9.36-9.36,14.74-5.81,5.38-9.19,15.26-9.19,15.26l-5.38,1.56c-.26-6.59,4.86-15.17,4.34-17.6-.52-2.43-8.24-1.99-8.24-1.99l5.98-2.6,7.2.87c7.02-3.9,14.65-10.23,14.65-10.23Z"/>
    <path class="cls-6" d="M526.92,264.9s-15.68.35-25.11,9.9c-9.43,9.55-8.84,14.73-8.72,16.62.12,1.89,2.71,4.72,2.71,4.72,0,0,3.18-1.28,7.4-2.29-1.66-6.23,2.65-16.09,13.21-20.77,6.44-2.86,11.25-2.11,14.19-.94-.92-2.52-1.57-4.27-1.57-4.27l-2.11-2.96h0ZM503.63,293.74c.16-3.36,1.52-12.27,11.35-16.13,0,0-8.94,6.07-8.45,15.54-1,.17-1.98.37-2.9.59h0ZM513.61,292.64c3.39-.43,7.51-.62,11.1.12,0,0-13.37,2.02-15.47,5.67-1.18,2.06-.53,4.73.26,6.66-7.79-2.77-14.64-3.29-14.64-3.29,10.02-7.66,20.75-8.96,20.75-8.96-.65-.1-1.31-.17-1.99-.2h0ZM392.39,164.94c.26-.91.37-2.25-.23-3.99-1.18-3.45-6.17-7.46-6.28-8.69-.08-.96,6.22-5.3,9.72-8-.97-.7-1.67-1.37-1.53-1.56.3-.41,4.15-1.66,4.15-1.66l-.77-.59,1.13-.41,6.16-7.7,3.79-1.01-2.61-.3s1.01-.47,2.73-.95c1.72-.47,7.58.06,7.58.06-.65.89-5.69,1.9-6.04,2.07-.36.18,1.18.65,1.18.65l-4.98,3.26.77.89c-.86.81-2.06,2.35-3.03,3.68,1.03-.06,2.29-.09,3.69-.05,4.82-2.64,8.1-2.45,8.1-2.45,0,0,3.89-2,4.84-4.11l.19,2.67s1.72-.63,2.6-1.87c0,0,.91,3.77.46,7.78l-.63-.77s.11,1.38.11,3.28c3.08,2.05,5.85,4.99,7.78,9.18,6.12,13.27.82,26.77-5.96,34.97,5.5-4.4,10.76-10.43,12.62-18.2,0,0-1.45-16.64-12.24-36.54l1.14-1.38s-6.21-5.32-17.47-8.26l1,2.41s-4.62-2.01-8.68-1.77c0,0-2.23,15.98-19.62,25.4l2.34.82.14,1.9s2.88,1.42,3.93,2.84c0,0-6.09-1.32-10.18.4,0,0,6.73-.59,9.5,4.07.18.31.34.61.48.92.8.43,1.61,1.02,2.26,1.82-.29-1.6-.85-3.53-1.85-5.8,0,0,3.07,5.01,3.71,7.02h0ZM413.24,141.18c.19-.01.3-.02.3-.02l-.15.04-.15-.03h0ZM423.29,194.12c-3.19,3.5-9.89,10.8-11.34,12.06-1.24,1.07-2.96.49-4.45.45-.86,3.53-4.4,10.44-4.19,15.95l5.38-1.56s3.38-9.88,9.19-15.26,10.66-14.83,9.36-14.74c0,0-1.58,1.31-3.96,3.11h0ZM311.18,235.32c-1.59-.39-5.16-1.18-7.71-1.18-3.37,0-9.25,4.67-12.69,4.66-.53,0-1,.06-1.41.17l-.03.5,3.07,4.04,11.29-6.32,7.66.14-.17-2.01h0ZM316.21,242.08l.39,1.65-4.27-.05-6.57,4.59-5.24,1.82-1.92,1.92-.64-3.1h-.45c1.31-1.31,2.82-3.07,3.69-3.36,1.49-.5,5.65-4.36,6.99-4.31,1.01.04,5.73.58,8.02.84h0ZM321.63,248.56c-1.95.28-7.82,1.1-8.84,1.14-1.23.06-2.3,2.13-4.2,4.04-1.91,1.91-6.25,3.44-7.94,3.55l4.98,1.81,5.98-1.99,5.92-6.1,3.61.44,1.25-1.37-.74-1.51h0ZM330.25,258.41l.73.97.45,1.79-5.32,1.35-4.93,1.85-6.44,4.48-4.78-2.67c2.34-1.27,6.96-4.32,8.91-5.27,2.52-1.23,2.97-2.75,5.44-2.52,1.56.14,4.21.08,5.96.02h0ZM413.17,355.06c-.39,1.75-1.46,6.45-2.33,8.8-.84,2.28-.45,6.55.13,8.52.99-.29,1.76-.95,1.76-.95l-.31-1.81,4.36-9.47-3.05-4.8-.55-.29h0ZM423.86,367.22c.11.13.21.25.3.38,1.2,1.77,2.85,4.94,2.85,4.94,0,0-4.44,7.35-5.45,7.79-1.01.44-4.31,1.08-4.31,1.08,0,0-.96-.29-2.09-.65,1.72-1.6,3.99-4.1,4.84-5.58.96-1.7,2.88-5.81,3.86-7.96h0ZM434.21,375.66c-1.69,2.78-5.06,8.19-6.39,9.58-.66.69-1.69,1.34-2.73,1.89,1.02.24,3.05.66,4.37.48,1.83-.25,5.51-3.17,5.51-3.17l2.48-5.11s-1.29-1.59-2.48-2.98c-.18-.21-.45-.45-.76-.69h0ZM447.22,380.07c.14.02.24.05.3.08.58.34,3.41,2.88,3.41,2.88,0,0-4.63,7.56-6.92,8.97-2.29,1.41-6.73,3.9-7.02,3.56-.18-.21-1.93-1.35-3.23-2.43,1.11-.58,2.35-1.26,3.72-2.03,5.34-3.01,8.5-8.49,9.74-11.02h0ZM390.68,172.21c.18-.22.37-.4.55-.47.79-.31,7.6-.03,8.75,1.04,1.15,1.07,2.54,3.3,1.43,3.69-.68.24-3.27.56-5.52.55-3.18-.81-5.47-2.92-5.47-2.92.12-.64.21-1.35.26-1.91h0ZM378.2,169.8c.46.33.78.62.86.83.39,1.01,0,5.74.42,9.22.19,1.57,1.19,3.73,2.22,5.64-3.74-4.18-5.38-7.91-5.5-8.55-.26-1.5.04-3.27-.13-4.42-.18-1.15-2.78-3.83-2.78-3.83l.67.09c1.57.71,3.3.94,4.23,1.01h0ZM394.17,173.76s2.23-.61,2.86-.39c.63.22,1.07,1.54.94,1.93-.14.39-1.46.58-1.46.58,0,0-.19-2.29-2.34-2.12Z"/>
    <path class="cls-11" d="M483.97,306.78s-1.15,6.04-.36,7.28c.8,1.24,8.26.27,8.26.27,0,0,14.1-1.6,21.66,11.27,7.56,12.87,5.62,21.45,5.62,21.45,0,0,3.06,2.25,6.03.2,2.96-2.04,3.68-6.95,3.68-6.95,0,0-.36-15.26-10.73-25.54-10.37-10.27-31.56-8.89-34.16-7.99h0ZM397.95,125.64s-.98,13.64-18.9,23.97c-17.92,10.33-14.05,24.7-13.61,28.36l2.68-8.3s-.19,21.14-8.09,33.63c0,0,.94-10.42-.69-21.54-1.63-11.13-1.34-16.02.96-19.95,0,0-5.66,5.76-4.51,21.49,0,0-13.71-29.51,3.5-45.84,0,0-2.71,10.68-1.4,16.92,0,0-.3-15.19,12.56-27.98,0,0-3.37,5.75-3.9,15.15,0,0,10.73-16.32,13.84-18.18,3.1-1.86,5.85.98,5.85.98,0,0-1.86,10.29-8.16,14.99,0,0,8.61-2.65,12.46-14.1,0,0,.32,9.84-7.7,17.55,0,0,8.67-6.1,15.12-17.13h0ZM439.81,142.32s19.18,17.46,22.94,31.79c0,0-4.69-5.92-8.55-8.65,0,0,7.27,10.06,10.84,23.71,3.56,13.65-3.07,21.9-5.01,26.3-1.94,4.39.17,8.78.17,8.78,0,0-5.98-3.2-1.88-11.84,4.1-8.64,4.62-11.4,2.9-18.17,0,0,.19,15.68-12.86,26.72,0,0-4.24,11.21,0,17.77,0,0-10.24-5.68-9.2-13.61,1.04-7.92,16.84-17.35,12.09-38.78,0,0,1.39,15.39-10.95,28.49,0,0-6,6.44-2.29,18.34,0,0-10.18-12.86-2.89-24.23,7.3-11.37,6.55-18.46,6.55-18.46,0,0-1.61,7.62-9.23,15.56s-.32,23.28-.32,23.28c0,0-12.12-10.3-6.87-24.14,0,0-2.79,4.4-3.97,10.62,0,0-1.92-8.93,6.23-16.76,8.15-7.83,9.34-13.52,9.34-13.52,0,0,1.29,4.62-.64,9.23,0,0,5.56-5.78,5.46-20.36,0,0,4.08,4.54,5.51,15.91,0,0,3.87-21.08-12.82-46.67l5.92,4.18s7.77,9.71,9.87,14.32c0,0-3.48-9.14-10.34-19.81h0ZM383.27,194.89s.7,13.38-2.38,21.5c0,0,4.39-3.66,6.22-8.87l1.01,7.59,2.01-16.29-5.03-3.66-.55,6.31s-.27-4.12-1.28-6.59h0ZM371.53,175.74s1.32,8.73-3.94,19.26c-5.26,10.53-3.47,15.58-4.21,20.31-.74,4.74-2.32,6.95-2.32,6.95,0,0,7.58-4.21,10.11-15.89,0,0,.27,10.66-10.14,20.13-10.4,9.47-7.95,27.24-7.95,27.24,0,0,3.86-10.29,14.03-16.37,10.17-6.08,12.16-17.54,12.16-17.54l-4.21,5.26s6.48-12.57,4.41-28.26c0,0-1.85,7.38-4.38,10.15,0,0,2.66-21.5-3.55-31.25h0ZM359.46,220.74c-1.07,5.31-5.84,9.61-5.84,9.61-4.1-1.21-10.15-8.4-10.15-8.4,9.88,4.03,15.99-1.21,15.99-1.21h0ZM367.39,355.45c2.35,1.23,4.97,2.49,7.83,3.7-2.74,3.45-7.02,10.14-9.18,20.28-3.49-1.09-6.85-2.39-9.93-3.93,1.82-4.95,6.04-15.18,11.29-20.05h0ZM359.9,331.28l-2.51.84-3.02,9.8s3.54,2.88,9.01,6.52c.65-4.77,3.48-7.66,5.47-9.14-3.31-2.29-6.63-5.03-8.96-8.02h0ZM376.07,355.93c6.63,3.4,13.98,6.29,20.85,7.09l-16.03-16.78c-2.28,2.73-3.77,6.57-4.81,9.69h0ZM390.31,237.58s-1.97,9.24-1.24,24.24c1.74-.08,3.64-.23,5.62-.5-.16-14.54,2.7-23.27,2.7-23.27l-7.08-.47h0ZM389.32,265.74c.19,2.46.45,5.05.81,7.76.68,5.22,1.22,10.6,1.64,15.75,1.79.15,3.81.24,5.96.21-.39-3.44-.87-7.02-1.48-10.66-.82-4.94-1.27-9.54-1.46-13.72-1.79.36-3.66.57-5.48.66h0ZM392.08,293.21c.39,5.32.65,10.28.84,14.42,1.81.05,3.9.02,6.13-.17-.15-4.23-.43-9.04-.92-14.21-2.02.15-4.08.12-6.05-.04h0ZM393.05,311.01c.2,5.26.24,8.56.24,8.56l5.68,5.49s.36-5.59.17-14.35c-2.02.29-4.12.37-6.09.3h0ZM444.71,302.17l-35.52,13.49-7,12.09,9.55,10.44,10.69-16.68,23.93-8.27-1.66-11.07h0ZM458.21,331.27c-3.72.9-20.83,9.57-20.83,9.57,0,0-3.49-.56-7.21-1.24-3.72-.68-12.84,1.35-12.84,1.35,8.22-5.74,31.19-15.54,31.19-15.54l9.12-1.91.56,7.77h0ZM453.97,340.49c6.03-8.31,17.56-10.19,17.56-10.19,0,0,18.32,5.76,21.93,24.63,3.61,18.87-3.74,28.79-3.74,28.79-3.85-1.45-13.93-2.29-13.93-2.29,0,0,3.53-12.78-2.08-26.61-5.61-13.82-19.75-14.34-19.75-14.34h0ZM472.94,271.71l-2.67,11.66s-6.86,9.68-13.99,14.18l-2.13,3.88,3.13,6.88-3.75,2.75,10.01,13.14-4.88-11.39,2.88-3.75-3.5-6.51,2.13-2.5,3-.25,10.76-12.51.25-14.14-1.23-1.44h0ZM506.26,252.97s-11.96,2.16-19.59,12.19c-7.63,10.02-8.77,15.83-7.97,18.45.8,2.62,5.47,7.74,7.17,8.09,1.71.34,3.87-3.53,3.87-3.53,0,0,10.71-27.67,38.38-25.85,0,0-14.83-10.23-32.23,4.9,0,0,2.05-8.31,10.36-14.24h0ZM507.17,230.61c3.71,1.16,4.17,16.91,4.17,16.91-19.23,0-33.36,23.52-34.99,22.36-1.62-1.16-4.52-14.13-4.52-14.13,14.95-8.81,35.34-25.14,35.34-25.14h0ZM350.72,260.83s-5.36,8.14-5.56,11.02l23.53,24.03v-10.33s-9.43-2.88-12.91-11.02c-3.48-8.14-2.98-13.31-2.98-13.31l-2.09-.4h0ZM306.05,297.28l3.07.63,7.09-3.86,4.1-6.94s6.87,4.8,9.55,14.71c2.68,9.92-.25,28.36-13.3,35.69,0,0-14.19-11.03-17.63-19.86l1.55.61s4.78,7.07,14.96,7.82l-4.45-2.63,4.58-1.28s-6.53-4.28-8.36-6.47l6.4-4.04-4.51-11.12-2.96-2.09-.09-1.17Z"/>
    <path class="cls-10" d="M483.83,314.27c1.47.92,8.04.06,8.04.06,0,0,14.1-1.6,21.66,11.27,7.56,12.87,5.62,21.45,5.62,21.45,0,0,3.06,2.25,6.03.2,2.96-2.04,3.68-6.95,3.68-6.95,0,0-.2-8.67-4.74-17.33l-4.4,1.16s-16.62-19.46-35.88-9.87h0ZM473.25,261.52c5.35-3.98,18.84-13.96,21.97-15.85,2.62-1.59,3.17-5.73,3.25-8.32,5.18-3.92,8.69-6.74,8.69-6.74,3.71,1.16,4.17,16.91,4.17,16.91-19.23,0-33.36,23.52-34.99,22.36-.88-.63-2.14-4.74-3.1-8.36h0ZM496.67,264.98c-5.18,4.7-11.25,11.26-14.03,17.69,0,0,3.07,4.12,6.32,6.71.47-.67.78-1.22.78-1.22,0,0,10.71-27.67,38.38-25.85,0,0-14.83-10.23-32.23,4.9,0,0,.21-.86.78-2.23h0ZM478.39,333.66c5.6,3.5,12.93,10.08,15.07,21.28,3.61,18.87-3.74,28.79-3.74,28.79-3.85-1.45-13.93-2.29-13.93-2.29,0,0,3.53-12.78-2.08-26.61-5.61-13.82-19.75-14.34-19.75-14.34.82-1.14,1.75-2.15,2.73-3.06,3.24.51,8.62,1.87,13.21,5.45,3.84-2.79,7.19-5.86,9.22-7.82-.26-.47-.51-.95-.74-1.41h0ZM471.45,290.15l-1.58-6.25c.26-.35.39-.54.39-.54l2.67-11.66,1.23,1.44-.25,14.14-2.47,2.87h0ZM445.24,305.76l-30.13,12.16-1.08,9.25-.63-5.92-6.82,11.32,5.15,5.63,10.69-16.68,23.93-8.27-1.12-7.48h0ZM457.92,327.31l-7.62,1.56-22.34,10.59c.84-.01,1.59.02,2.2.13,3.72.68,7.21,1.24,7.21,1.24,0,0,17.12-8.67,20.83-9.57l-.29-3.96h0ZM357.94,370.88c1.42.44,3.32.9,4.12.5,1.14-.57,6.97-10.95,8.78-14.2,1.39.66,2.85,1.33,4.37,1.98-2.74,3.45-7.02,10.14-9.18,20.28-3.49-1.09-6.85-2.39-9.93-3.93.46-1.26,1.08-2.86,1.84-4.63h0ZM356.38,335.39c2.18,1.86,5.64,4.76,9.1,7.45-.98,1.47-1.79,3.32-2.1,5.6-5.47-3.64-9.01-6.52-9.01-6.52l2.01-6.53h0ZM377.75,351.53c3.18,2,12.96,8.07,18.52,10.82l.65.68c-6.87-.8-14.22-3.69-20.85-7.09.46-1.38,1.01-2.9,1.68-4.41h0ZM308.03,315.19c2.03.72,5.62,1.59,10.46,1.1,7.8-.79,9.73-7.19,9.73-7.19,0,0,.96,5.84,1.04,11.05-1.98,6.95-6.01,13.61-12.69,17.36,0,0-14.19-11.03-17.63-19.86l1.55.61s4.78,7.07,14.96,7.82l-4.45-2.63,4.58-1.28s-6.53-4.28-8.36-6.47l.8-.51h0ZM376.06,128.05c1.23,1.56,2.5,3.92,2.55,6.99.1,6.02-11.51,17.72-15.8,23.6-2,2.75-3.36,5.33-4.24,8.14-.53,3.38-.26,7.93.77,14.97,1.63,11.13.69,21.54.69,21.54,7.91-12.49,8.09-33.63,8.09-33.63l-2.68,8.3c-.45-3.66-4.31-18.03,13.61-28.36,17.92-10.33,18.9-23.97,18.9-23.97-6.45,11.03-15.12,17.13-15.12,17.13,8.02-7.7,7.7-17.55,7.7-17.55-3.85,11.45-12.46,14.1-12.46,14.1,6.3-4.7,8.16-14.99,8.16-14.99,0,0-2.75-2.84-5.85-.98-.92.55-2.53,2.39-4.32,4.7h0ZM353.75,177.91c-1.16-5.34-1.54-12.01,1.49-17.63,6.15-11.42,11.88-13.9,14.61-19.98.91-2.03,1.45-4.2,1.76-6.19.57-.81,1.16-1.63,1.75-2.45.56,3.84.16,9.52-4.69,15.27-5.18,6.14-8.2,12.39-9.87,17.07-1.59,2.92-3.77,8.95-3.01,19.28,0,0-.95-2.05-2.04-5.37h0ZM371.66,179.25c.06-2.21-.13-3.51-.13-3.51,6.21,9.75,3.55,31.25,3.55,31.25,2.54-2.77,4.38-10.15,4.38-10.15,2.08,15.69-4.41,28.26-4.41,28.26l4.21-5.26s-1.99,11.46-12.16,17.54c-10.17,6.08-14.03,16.37-14.03,16.37,0,0-.07-.49-.13-1.34.63-8.27,13.54-24.2,13.54-24.2,6.58-7.95,6.31-18.91,6.31-18.91-.94,3.91-3.19,6.95-5.14,8.95,3.15-5.63,3.47-10.41,3.5-11.59,1.23-5.25,1.67-11.14,1.44-17.44-.15-4.2-.52-7.46-.94-9.96h0ZM357.67,277.82l-2.12,4.65,13.14,13.42v-10.33s-6.84-2.09-11.02-7.74h0ZM441.67,174.95c1.65,4.07,3.74,11.37,2.45,20.32-1.68,11.63-11.47,13.19-11.48,25.06.87,7.15,5.37,12.84,5.37,12.84-3.71-11.9,2.29-18.34,2.29-18.34,3.21-3.41,5.49-6.97,7.11-10.38,1.01-4.8,1.93-12.3.16-19.65-.02,3.5-.39,5.49-.39,5.49-1.43-11.37-5.51-15.91-5.51-15.91v.56h0ZM443.45,151.92c2.4,3.21,5.49,7.55,6.7,10.21,0,0-3.48-9.14-10.34-19.81,0,0,19.18,17.46,22.94,31.79,0,0-4.69-5.92-8.55-8.65,0,0,7.27,10.06,10.84,23.71,3.56,13.65-3.07,21.9-5.01,26.3-1.94,4.39.17,8.78.17,8.78,0,0-5.98-3.2-1.88-11.84,4.1-8.64,4.62-11.4,2.9-18.17,0,0,.08,7.29-4,15.44,2.71-9.37,2-20.09-.09-30.71-1.62-8.24-8.26-19.16-13.69-27.05h0ZM482.73,340.65c1.12,1.53,2.35,3.07,3.65,4.6-2.45,2.16-5.62,4.79-8.88,7.04-.8-1.52-1.79-3.12-2.99-4.7,2.7-1.9,5.77-4.31,8.22-6.94h0ZM480.63,360.55c.19-.06,5.11-1.58,6.95-3.42,0,0,1.88,7.95,1.88,14.69,0,0,2.71-8.92,1.75-19.01-3.3,3.24-7.35,5.89-10.58,7.74h0ZM383.27,194.89c1.01,2.47,1.28,6.59,1.28,6.59l.55-6.31,5.03,3.66-2.01,16.29-1.01-7.59c-1.83,5.22-6.22,8.87-6.22,8.87,3.08-8.12,2.38-21.5,2.38-21.5Z"/>
    <path class="cls-15" d="M450.56,321.27l-3.18-4.46s-17.82,6.75-22.53,9.93c-4.71,3.18-7.89,9.17-7.89,9.17,0,0,17.95-10.44,22.15-11.58,4.2-1.15,11.46-3.05,11.46-3.05Z"/>
    <path class="cls-2" d="M282.27,238.69l6.04-4.06-1.23,5.29,3.78,4.25-4.8.83-2.03,4.72.33,4.12,4.34-7.03,4.89-.05-.88,3.68,4.61,1.59-2.36,1.48-2.42,5.6,2.86-3.9,3.35-.82.27,4.06,5.27,2.14-2.45,2.85-4.5,1.85h4.84l.8-1.14,1.56.04,1.98-1.89,1.3,4.29,4.04,2.78-3.15,3.48s-3.22-.51-5.19.23c0,0,7.49,1.81,8.12,8.4s-11.25,17.85-16.81,20.07c0,0,6.36-.25,9.37-2.73l4.31,12.07-7.11,5.93,2.69-4.31s-16.92-.43-20.48-1.29c-3.56-.86-8.41-5.28-8.41-5.28l-4.74-8.52s.11-6.36,3.99-12.07c0,0,3.02,5.28,5.07,7.01,0,0-4.61-12.78-5.3-18.17-.68-5.39,3.06-24.21,4.12-26.68s2.91-6.35,2.91-6.35l1.02-2.48h0ZM528.33,221.9l-2.46,4.73s4.21,16.74,11.3,25.78c0,0-9.45-7.91-14.18-19.41,0,0,1.33,10.68,6.88,18.28,0,0-6.78-4.01-14.59-1.95l-4.31,4.01,5.03.21s21.54-.19,27.72,18.34c0,0-4.31-6.41-9.21-9.32,0,0,4.07,8.56,4.55,15.53.48,6.97,5.54,19.96,6.5,25.5.95,5.54-2.22,11.25-5.39,18.85-3.17,7.6-7.76,8.24-7.76,8.24v7.6s18.94-15.97,25.03-39.28c6.09-23.32-10.01-51.75-10.01-51.75,0,0-13.12-13.12-19.1-25.34h0ZM555.02,318.09s-1.16,13.8-9.91,24.28l-3.01,1.29s-24.57,31.48-42.35,43.36l-1-4.88-3.3-.29s3.3-9.19,4.45-17.66l7.61-7.61,12.2-2.87s15.22-9.04,35.33-35.62h0ZM484.53,317.86c26.36-3.37,32.08,22.99,32.08,22.99l-11.44,9.19,9.71-3.27-15.32,12.16s-.82-7.87-5.62-17.06c-4.8-9.19-14.51-13.79-14.51-13.79l5.11-10.22h0ZM450.72,343.75h4.33s12.13,2.68,16.97,14.31c4.84,11.63,1.89,20.41,1.89,20.41,0,0-8.32,3.66-11.98,3.88-3.66.22-6.43-1.88-6.43-1.88l-.33-5.66-2.8,6.45-5.2-2.91-6.41-.06.32-4,2.85-6.47-3.55,2.6s.13,2.73-1.01,3.68c-1.14.95-1.52,1.59-1.52,1.59l.51,1.84s-4.38-4.5-8.43-5.58l2.28-3.49.25-2.22,1.59.06-.13-5.71-1.27-1.27-2.35,2.41.44,5.2-2.09,4.06s-4.44-6.41-7.93-8.31c0,0,7.18-6.67,12.66-10.39,0,0-7.44,1.82-15.1,7l-3.57-5.18-3.87-1.9,14.17-11.34,7.05,1.17-1.17,2.68,4.87-1.93s2.52.08,5.62,1.17c3.1,1.09,8.56.5,9.37-.23h0ZM436.21,357.57c4.03-4.68,8.6-5.08,8.6-5.08,0,0-2.77-2.11-5.48-.8-2.72,1.31-3.12,5.89-3.12,5.89h0ZM443.71,366.48c3.52-4.08,7.55-4.33,7.55-4.33,0,0-3.62-1.96-4.93-.85-1.31,1.11-2.62,5.18-2.62,5.18h0ZM443.56,240.83c.92,1.76,6.9,2.58,6.9,2.58l4.1-.11-1.71-2.73s1.82,1.37,5.24.46c3.41-.91,18.32-7.62,31.75-20.26,13.43-12.63,22.87-19.23,22.87-19.23,2.84-.91,10.7,2.39,10.7,2.39,0,0,3.07,8.54,1.93,13.09-1.14,4.55-9.56,21.39-9.56,21.39l-4.32-9.45,6.03-13.43c-6.71,8.65-47.92,37.3-47.92,37.3-6.91,2.78-13.05,2.69-13.05,2.69-7.39-2.98-12.96-14.68-12.96-14.68h0ZM341.53,148.74s17.37-26.49,36.91-35.52c0,0,59.89,3.12,90.5,58.71l-1.04,24.38,2.6,10.54-1.61,2.48-2.6-.99-3.35,9.05s9.05-1.24,19.09-12.03c0,0-5.8,7.86-12.21,11.73-6.4,3.88-8.94,2.45-8.94,2.45,0,0-1.34,3.64-.32,7.59,0,0-6.56-2.06-5.06-9.49,0,0-7.56,4.88-5.67,14.4l7.09,4.19s29.22-9.08,46.13-34.75c0,0-5.9-.76-8.89.26-2.99,1.02-13.54,10-13.54,10,0,0,6.06-6.93,10.16-10.47,4.09-3.54,7.95-4.96,7.95-4.96,0,0-6.3-1.1-10.47-.79-4.17.32-18.19,4.41-17.72,4.25.47-.16,6.3-5.51,6.3-5.51,0,0,3.69-13.41,3.95-19.61,0,0-34.22-64.38-106.13-65.71,0,0-17.33,12.99-21.83,20.83,0,0,9.44-23.43,31.13-29.66l-4.74,4.45s38.44-.42,69.46,25.75c31.02,26.16,40.21,49.5,40.21,49.5l-6.07,12.7,8.75-3.95,5.65.42,8.19-17.64s-1.86-29.72-47.8-56.5l19.74,7.61-8.18-21.39,7.41-2.93s-25.7-20.66-60.44-17.58c-34.74,3.08-67.54,37.02-77.98,69.16l3.56,36.08-.15,3.55,15.1,27.99s.3-14.22.59-21.18l-6.81-8.74,3.7,18.66s-12.51-18.51-12.64-57.36h0ZM419.45,218.14s-13.44,9.39-17.39,15.04c0,0-2.59,11.94-3.47,27.45,2.32-.49,4.68-1.16,7-2.07-1.15,2.61-3.86,4.4-7.17,5.55-.16,4.36-.18,8.94.04,13.58,0,0,.07.7.29,1.89,2.85,2.58,6.94,5.13,12.16,5.35,10.84.46,19.61-5.88,19.61-5.88,0,0-7.89-3.57-10.7-9.52,0,0,11.96,5.87,21.35,1.88,0,0-17.22-.73-24.44-13.54,0,0,14.14,8.27,24.81,4.68,4.23-1.42,6.57-3.17,7.87-4.77-5.93-3.74-11.11-15.4-11.11-15.4,0,0-5.98-4.27-14.71-5.56,0,0,5.8-2,10.81.86,0,0-9.95-9.09-14.95-19.54h0ZM381.47,223.78l6.73,7.41s-2.89,14.01-2.34,30.68c-3.91-.02-6.46-.37-6.46-.37-1.09.04-3.18,1.59-2.12,2.4,1.36,1.04,4.76,1.75,8.77,1.87.24,3.73.68,7.55,1.36,11.33.76,4.16,1.33,8.15,1.77,11.88-3.21-.39-5.22-.87-5.22-.87-1.09-.06-3.32,1.26-2.34,2.18,1.19,1.11,4.26,2.11,7.99,2.65.55,5.69.78,10.66.86,14.58-2.54-.18-4.12-.47-4.12-.47-.93,0-2.79,1.24-1.9,1.98.97.81,3.25,1.46,6.06,1.79,0,3.89-.14,6.12-.14,6.12l-14.77-14.21s.08-10.06-1.9-16.49c0,0,8.25-.68,12.16-7.04,0,0-8.16,5.11-13.52,4.66-5.36-.45-11.25-4.63-12.97-18.02-1.71-13.39,5.25-21.85,9.21-24.74,3.96-2.89,9.59-8.36,12.9-17.3h0ZM400.74,286.92l.16.44c.18.48.34,1.15.49,1.94,2.06-.16,4.2-.44,6.35-.9-2.26-.28-4.6-.76-7-1.48h0ZM401.87,292.76c3.34-.68,6.24-1.98,7.9-4.14,15.22,1.17,26.49-6.17,26.49-6.17-2.31,6.83-6.5,12.32-6.5,12.32,16.3-10.23,25.39-29.08,27.97-35.08,4.89.14,9.31-.84,9.31-.84,0,0,3.53,7.54-.12,18.13-3.65,10.6-18.84,20.53-18.84,20.53l-40.85,14.99-4.39,6.01s0-3.7-.1-8.58c2.81-.87,5.12-2.29,6.18-4.45-2.08.71-4.2,1.21-6.25,1.55-.13-4.8-.37-10.2-.8-14.27h0ZM354.53,347.55s3.24,2.48,8.76,5.66c-2.24,2.44-7.59,9.19-10.33,20.57-3.26-1.96-6.1-4.25-8.32-6.95l9.89-19.28h0ZM379.58,360.91c-4.92,5.48-8.76,15.18-10.31,19.47,20.65,5.59,44.46,4.55,44.46,4.55l2.77-1.17-2.18-1.31s-3.93-.29-4.95-1.97c-1.02-1.68-.29-4.95-.29-4.95l-2.4-.22s-2.62-2.4-3.06-3.71c-.44-1.31,0-2.55,0-2.55l-3.8-3.01c-7.31-.94-14.17-2.87-20.22-5.14h0ZM366.53,350.47c1.98,1.25,4.14,2.54,6.41,3.79.44-4.83,3.1-7.84,5.15-9.47-1.74-.89-4.16-2.21-6.75-3.85-2.26,2.66-3.76,6.41-4.81,9.53h0ZM335.19,301.42s.87,5.99.5,13.11c-.37,7.12-3.37,13.11-3.37,13.11,0,0,14.36-1.37,22.1-7.49l-19.23-18.73h0ZM285.5,317.94s-33.54,17-57.95,22.75c0,0,8.76,5.89,23.69,11.92l.86,10.05s30.44,7.47,51.83-2.3l13.35-19.1s-18.09-7.9-25.7-22.97l-6.08-.35Z"/>
    <path class="cls-15" d="M292.98,249.3l-.27,1.14,4.61,1.59-2.36,1.48-1.97,4.57c-1.15,1.46-2.5,2.74-3.13,3.24-.94.74-4.59.66-4.84.49-.25-.16,3.16-9.75,3.89-10.66.52-.64,2.79-1.44,4.07-1.85h0ZM299,258.06c-1.77.78-4.77,2.76-5.66,4.15-1.29,2.01-3.71,8.87-3.4,9.38.31.52,5.31-.26,5.98.98.67,1.24,5.44,5.42,3.98,12.22-1.46,6.79-3.95,2.84-6.45,8.94-1.96,4.81-11.67,11.6-20.1,8.87l1.86,3.34s4.85,4.42,8.41,5.28c3.56.86,20.48,1.29,20.48,1.29l-2.69,4.31,7.11-5.93-4.31-12.07c-3.02,2.48-9.37,2.73-9.37,2.73,5.56-2.22,17.44-13.47,16.81-20.07s-8.12-8.4-8.12-8.4c1.98-.73,5.19-.23,5.19-.23l3.15-3.48-4.04-2.78-1.3-4.29-1.98,1.89-1.56-.04-.8,1.14h-4.84l4.5-1.85,2.45-2.85-5.27-2.14-.03-.39h0ZM469.27,101.32c-5.62-2.62-16.36-6.78-29.22-7.59,0,0,22.46,15.63,31.01,26.31l6.3,2.43-8.09-21.16h0ZM465.12,117.75l-7.5-2.89c45.94,26.78,47.8,56.5,47.8,56.5l-8.19,17.64-5.65-.42-8.75,3.95,6.07-12.7s-2.72-6.9-10.19-17.41c.95-3.55,1.62-10.14-2.78-17.95-6.63-11.76-36.04-35.1-36.04-35.1,8.72,1.52,18.8,5.54,25.23,8.38h0ZM473.82,198.88c-.22,1.79-.8,5.87-1.67,7.04-.38.51-1.02.67-1.7.64l.07.28-1.61,2.48-2.6-.99-3.35,9.05s9.05-1.24,19.09-12.03c0,0-5.8,7.86-12.21,11.73-6.4,3.88-8.94,2.45-8.94,2.45,0,0-.95,2.58-.64,5.76,1.38-.43,8.24-2.87,15.11-10.39,0,0,.58,6.55-7.52,13.44-4.79,4.07-9.4,6.07-12.37,7.03l1.47.87s29.22-9.08,46.13-34.75c0,0-5.9-.76-8.89.26-2.99,1.02-13.54,10-13.54,10,0,0,6.06-6.93,10.16-10.47,4.09-3.54,7.95-4.96,7.95-4.96,0,0-6.3-1.1-10.47-.79-2.83.21-10.16,2.16-14.46,3.35h0ZM484.65,225.31c1.73-1.42,3.47-2.94,5.19-4.55,13.43-12.63,22.87-19.23,22.87-19.23,2.84-.91,10.7,2.39,10.7,2.39,0,0,3.07,8.54,1.93,13.09-1.14,4.55-9.56,21.39-9.56,21.39l-4.32-9.45,6.03-13.43c-6.71,8.65-47.92,37.3-47.92,37.3-6.91,2.78-13.05,2.69-13.05,2.69-2.87-1.15-5.46-3.63-7.56-6.22,9.98,2.41,27.46-3.85,33.72-13.57,4.97-7.7,3.5-9.85,1.98-10.42h0ZM400.36,243.17c1.84-4.24,4.97-10.42,8.24-12.45,5.16-3.19,10.22-2.62,10.22-2.62,0,0,2.64,3.93,6.38,8.32,2.07-.39,5.82-.68,9.21,1.26,0,0-9.95-9.09-14.95-19.54,0,0-13.44,9.39-17.39,15.04,0,0-.83,3.84-1.71,9.99h0ZM425.89,237.23c2.24,2.57,4.81,5.22,7.42,7.3,0,0-.94,10.2-8.35,16.95,4.9,1.65,11.19,2.87,16.59,1.05,4.23-1.42,6.57-3.17,7.87-4.77-5.93-3.74-11.11-15.4-11.11-15.4,0,0-4.95-3.53-12.41-5.14h0ZM421.74,263.92c8.13,7.01,19.45,7.49,19.45,7.49-9.38,3.99-21.35-1.88-21.35-1.88,2.81,5.94,10.7,9.52,10.7,9.52,0,0-8.77,6.34-19.61,5.88-5.22-.22-9.32-2.77-12.16-5.35-.21-1.18-.29-1.89-.29-1.89-.22-4.63-.21-9.22-.04-13.58.45-.16.89-.32,1.31-.5,3.22,3.43,8.98,5.43,17.9,2.26,1.5-.53,2.86-1.19,4.09-1.95h0ZM386.35,245.06c-1.2,2.64-2.48,6.56-3.04,11.96-.18,1.77-.49,3.35-.91,4.76.97.06,2.14.1,3.47.11-.2-6.16.06-11.96.48-16.82h0ZM380.96,265.24c-2.74,4.9-7.43,6.55-12.81,6.42-4.4-.1-7.22-3.65-8.97-7.61.04.58.1,1.17.18,1.77,1.71,13.39,7.61,17.57,12.97,18.02,5.36.45,13.52-4.66,13.52-4.66-3.91,6.36-12.16,7.04-12.16,7.04.4,1.31.72,2.78.97,4.27,3.09-.23,9.4-.19,11.14,3.74,1.16,2.63,1.57,8.12,1.68,12.97.71.09,1.73.21,2.98.3-.08-3.92-.31-8.89-.86-14.58-3.73-.54-6.79-1.53-7.99-2.65-.98-.91,1.26-2.24,2.34-2.18,0,0,2.01.48,5.22.87-.44-3.74-1.02-7.72-1.77-11.88-.69-3.78-1.12-7.6-1.36-11.33-1.88-.06-3.63-.24-5.1-.53h0ZM387.53,310.3c0,1.5-.02,2.84-.04,3.87l2.88,2.77s.14-2.23.14-6.12c-1.09-.13-2.09-.3-2.98-.52h0ZM405.39,291.72c1.82-.74,3.34-1.76,4.39-3.11,15.22,1.17,26.49-6.17,26.49-6.17-2.31,6.83-6.5,12.32-6.5,12.32,16.3-10.23,25.39-29.08,27.97-35.08,4.89.14,9.31-.84,9.31-.84,0,0,3.53,7.54-.12,18.13-3.65,10.6-18.84,20.53-18.84,20.53l-40.85,14.99-4.39,6.01s0-3.63-.1-8.45l.3-.23c2.67-.88,4.85-2.27,5.88-4.35-.25.08-.49.17-.74.25,6.6-5.62,11.54-11.41,6.01-11.49-3.05-.04-6.18-1.18-8.8-2.51h0ZM546.66,321.93c1.59-7.73,4.47-25.97,1.22-44.67,0,0,6.87,12.17,7.47,28.24.79-2.1,1.5-4.27,2.08-6.51,1.31-5.03,1.59-10.31,1.22-15.48-1.94-6.58-5.43-15.45-11.52-23.49-9.71-12.81-19.52-25.95-18.78-38.05l-.03-.07-2.46,4.73s4.21,16.74,11.3,25.78c0,0-9.45-7.91-14.18-19.41,0,0,1.33,10.68,6.88,18.28,0,0-6.78-4.01-14.59-1.95l-4.31,4.01,5.03.21s21.54-.19,27.72,18.34c0,0-4.31-6.41-9.21-9.32,0,0,4.07,8.56,4.55,15.53.48,6.97,5.54,19.96,6.5,25.5.95,5.54-2.22,11.25-5.39,18.85-3.17,7.6-7.76,8.24-7.76,8.24v7.6s7.27-6.13,14.25-16.34h0ZM346.41,363.36c2.06-.01,4.3-.51,6.32-1.99,4.14-3.05,6.96-7.29,9.02-9.06.49.29,1.01.6,1.54.9-2.24,2.44-7.59,9.19-10.33,20.57-3.26-1.96-6.1-4.25-8.32-6.95l1.78-3.47h0ZM370.35,380.66c3.26-4.42,6.53-10.38,8.14-9.36,1.85,1.18,16.15-2.55,21.36-5.22l3.76,2.97s-.44,1.24,0,2.55c.44,1.31,3.06,3.71,3.06,3.71l2.4.22s-.73,3.28.29,4.95c1.02,1.68,4.95,1.97,4.95,1.97l2.18,1.31-2.77,1.17s-22.99,1-43.38-4.27h0ZM415.44,355.19c1.57-.86,5.52-2.97,8.41-4.05,3.68-1.36,11.86-2.89,12.32-2.4.33.37.74,1.45-2.85,3.55-.67.17-7.76,2.06-15.05,6.99l-2.83-4.1h0ZM424.97,366.39c2.05,2.27,3.67,4.6,3.67,4.6l2.06-3.99.03-.1-.44-5.18,2.35-2.41.31.31c.3-1.92.45-3.99-.95-1.71-1.16,1.9-4.57,5.75-7.03,8.47h0ZM433.77,373.79c1.49-2.51,5.13-8.65,6.69-11.13,1.7-2.68,2.5,2.69,2.2,6.09l-2.29,1.68s.13,2.73-1.01,3.68c-1.14.95-1.52,1.59-1.52,1.59l.51,1.84s-2.01-2.07-4.57-3.74h0ZM445.35,378.33c.17-1.5.61-3.26,1.7-4.11,2.13-1.66,7.21-6.89,7.74-8.7.53-1.81,6.98,5.42,13.43,4.29,3.79-.66,5.29-3.1,5.88-4.99,1.66,8.1-.2,13.64-.2,13.64,0,0-8.32,3.66-11.98,3.88-3.66.22-6.43-1.88-6.43-1.88l-.33-5.66-2.8,6.45-5.2-2.91-1.8-.02h0ZM498.64,382.13l13.2-13.64,5.26-2.82,25.63-28.6-.83-3.16c4.02-4.4,8.44-9.63,13.12-15.82,0,0-1.16,13.8-9.91,24.28l-3.01,1.29s-24.57,31.48-42.35,43.36l-1-4.88h-.1ZM335.39,317.47c3.66-.41,7.5-1.22,7.17-2.82-.46-2.19-4.61-3.58-6.78-4.16-.03-5.21-.59-9.08-.59-9.08l19.23,18.73c-7.74,6.12-22.1,7.49-22.1,7.49,0,0,2.21-4.42,3.07-10.17h0ZM244.41,349.67c9.69-2.68,32.3-9.5,46.58-18.42,0,0-12.47,18.49-39.03,29.73l-.72-8.37c-2.45-.99-4.73-1.97-6.83-2.93h0ZM257.64,363.74c9.19,1.54,28.1,3.57,43.47-2.21,7.31-9.22,10.52-20.22,10.52-20.22-14.01,9.92-41.21,18.96-53.98,22.43h0ZM490.93,337.32c1.97-.28,4.3-1.41,6.92-4.08,5.29-5.39,9.45-6.24,12.39-5.44,4.9,6.25,6.38,13.04,6.38,13.04l-11.44,9.19,9.71-3.27-15.32,12.16s-.82-7.87-5.62-17.06c-.87-1.67-1.9-3.18-3.01-4.54h0ZM400.74,286.92l.16.44c.18.48.34,1.15.49,1.94,2.06-.16,4.2-.44,6.35-.9-2.26-.28-4.6-.76-7-1.48Z"/>
    <path class="cls-16" d="M256.34,205.59l8.35,8.33c4.58-4.69,9.65-5.78,12.3-6l-7.97-8.06s-8.3.94-12.68,5.73h0ZM267.74,216.96c2.36-2.44,6.71-6,12.11-6.15l7.68,7.76c-2.88.74-8.38,2.65-11.26,6.9l-8.54-8.51h0ZM279.44,228.64l3.34,3.33c3.43-1.24,7.83-1.81,7.83-1.81l2.59-2.34,3.56.09-5.6-5.66c-5.34.17-9.6,4.03-11.71,6.39h0ZM322.44,271.53l8.68,8.66c3.45-4.18,8.11-5.88,10.86-6.56l-7.16-7.24c-5.26.08-9.88,3.12-12.38,5.14h0ZM334.87,283.93c2.64-2.54,6.37-5.51,10.51-6.86l9.56,9.67c-2.88.8-7.27,2.64-10.48,6.76l-9.59-9.56h0ZM348.16,297.18l13.8,13.76c3.57-4.02,8.25-5.58,10.83-6.17l-14.41-14.57c-4.06,1.5-7.7,4.49-10.21,6.98h0ZM365.75,314.73c2.68-2.51,6.37-5.32,10.41-6.54l10.11,10.22c-2.92.92-7.01,2.85-9.99,6.82l-10.53-10.5h0ZM379.95,328.89l5.06,5.05c3.04-3.92,7.17-5.78,10.04-6.65l-5.31-5.37c-3.93,1.62-7.41,4.57-9.8,6.96h0ZM388.72,337.63c2.43-2.4,5.91-5.29,9.81-6.84l8.56,8.65c-2.77.76-7,2.49-10.2,6.33l-8.16-8.14h0ZM400.63,349.52l4.62,4.61,4.86-5.75,3.48-2.35-3.08-3.11c-3.88,1.41-7.37,4.19-9.88,6.6Z"/>
    <path class="cls-22" d="M256.34,205.59l2.68,2.67c1.87-1.41,5.04-3.59,8.1-4.61l5.25,5.28c1.84-.65,3.46-.92,4.62-1.02l-7.97-8.06s-8.3.94-12.68,5.73h0ZM275.21,211.78l8.18,8.21c1.57-.69,3.04-1.14,4.14-1.42l-7.68-7.76c-1.66.05-3.21.41-4.64.97h0ZM286.64,223.27l5.49,5.51,1.06-.96,3.56.09-5.6-5.66c-1.61.05-3.13.44-4.51,1.02h0ZM330.34,267.14l7.78,7.82c1.45-.65,2.8-1.07,3.86-1.33l-7.16-7.24c-1.56.02-3.07.31-4.48.75h0ZM341.8,278.65l9.43,9.47c1.35-.65,2.63-1.09,3.71-1.39l-9.56-9.67c-1.23.4-2.43.95-3.58,1.59h0ZM354.95,291.85l14.08,14.14c1.45-.61,2.77-.98,3.76-1.21l-14.41-14.57c-1.19.44-2.33,1-3.43,1.65h0ZM372.67,309.65l10.13,10.18c1.24-.63,2.43-1.09,3.47-1.42l-10.11-10.22c-1.2.36-2.37.86-3.49,1.46h0ZM386.54,323.58l5.06,5.08c1.24-.61,2.43-1.05,3.46-1.36l-5.31-5.37c-1.11.46-2.18,1.02-3.21,1.65h0ZM395.32,332.4l8.29,8.32c1.27-.59,2.47-.99,3.47-1.27l-8.56-8.65c-1.11.44-2.18.99-3.2,1.6h0ZM407.3,344.42l3.48,3.5,2.81-1.89-3.08-3.11c-1.11.4-2.18.92-3.21,1.5Z"/>
    <path class="cls-16" d="M452.85,384.43s-3.15,6.63-7.81,9.91l7.81,7.81s7.48-2.95,10.17-7.15l-10.17-10.56Z"/>
    <path class="cls-16" d="M470.79,396.16s-9.45,13.9-20.3,18.82l7.18,5.78s12.02-6.56,19.99-20.07l-6.87-4.53Z"/>
    <path class="cls-22" d="M470.79,396.16s-2.08,3.07-5.42,6.83l4.3-2.18,5.27,4.04c.94-1.3,1.86-2.69,2.72-4.16l-6.87-4.53Z"/>
    <polygon class="cls-11" points="440.37 397.02 438.73 398.15 448.9 407.75 450.28 406.72 440.37 397.02"/>
    <path class="cls-5" d="M264.62,133.78l-7.56,5.37,2.64,2.76,6.2-4.71-1.28-3.42h0ZM253.64,141.57l-60.21,42.75,4.92,4.16,58.11-44.12-2.82-2.79Z"/>
    <polygon class="cls-9" points="267.97 134.23 268.57 136.83 291.18 161.66 301.12 161.22 277.32 134.9 267.97 134.23"/>
    <path class="cls-21" d="M267.06,140.28l-5.15,3.93,22.28,23.24,4.42-3.75-21.55-23.42h0ZM258.76,146.63l23.09,22.83-52.99,45.02-27.38-24.06,57.28-43.79Z"/>
    <path class="cls-11" d="M226.54,205.25c3.41,0,6.61,1.17,9.39,3.22l5.77-4.91c-4.24-4.14-9.49-6.59-15.16-6.59-4.58,0-8.88,1.6-12.6,4.39l6.11,5.37c2.03-.96,4.22-1.48,6.49-1.48Z"/>
    <path class="cls-10" d="M255.73,178.76c3.84,0,7.15,2.26,8.67,5.51l-14.08,11.97c-2.52-1.73-4.17-4.62-4.17-7.9,0-5.29,4.29-9.58,9.58-9.58Z"/>
    <path class="cls-11" d="M255.73,172.02c5.89,0,11.05,3.12,13.91,7.8l9.01-7.66c-5.08-7.19-13.45-11.88-22.92-11.88-15.49,0-28.05,12.56-28.05,28.05,0,7.84,3.21,14.92,8.39,20.01l9.01-7.66c-3.47-2.99-5.66-7.42-5.66-12.36,0-9.01,7.3-16.31,16.31-16.31Z"/>
    <polygon class="cls-19" points="200.21 196.69 202.32 222.3 226.71 241.04 227.16 219.86 200.21 196.69"/>
    <path class="cls-10" d="M202.18,220.54l.14,1.76,5.21,4c.91-6.8,3.86-12.66,7.97-16.47l-5.55-4.77c-3.58,4.05-6.31,9.39-7.77,15.48Z"/>
    <path class="cls-10" d="M218.66,234.85l8.05,6.19.38-17.97c-.42-.1-.86-.15-1.3-.15-4.05,0-7.32,4.34-7.32,9.69,0,.77.07,1.52.2,2.24Z"/>
    <polygon class="cls-4" points="197 193.92 191.57 190.15 194.12 224.96 227.95 251.27 236.21 247.6 236.36 227.49 229.94 222.75 232.92 228.25 233.15 245.15 229.48 247.52 198.58 222.67 197 193.92"/>
    <polygon class="cls-19" points="194.11 224.93 194.12 224.96 227.95 251.27 235.7 247.82 233 245.25 229.48 247.52 198.58 222.67 194.11 224.93"/>
    <path class="cls-18" d="M284.51,171.51l-52.35,44.47,6.53,6.08.18,21.18,22.02-14.32-10.74-9.09,6.25,8.98-14.59,9.94-.75-18.76,11.43-10.14-2.15-3.88s10.43-11.24,18.65-11.85l1.28,1.08,16.31-14.22-.74,21.97-2.7,3.3.34,2.22,5.93-5.39v-28.01s-4.91-3.57-4.91-3.57h0ZM292.91,165.25l-.3,10.44,8.53-4.57-1.6,27.2-8.23,5.87,2.97-.46,7.31-4.42,2.21-34.59-10.9.53Z"/>
    <path class="cls-11" d="M253.36,211.34l-.26,3.21,6.61,6.54,1.44-2.03-7.8-7.72h0ZM264.43,225.75l6.18,6.11,1.44-2.02-6.26-6.19-1.36,2.1h0ZM273.8,235.01l4.7,4.64,1.13-2.31-4.47-4.42-1.36,2.09h0ZM318.65,279.34l8.45,8.35,1.4-1.97-8.67-8.58-1.19,2.19h0ZM330.27,290.82l10.83,10.7,1.39-1.95-10.9-10.79-1.32,2.04h0ZM344.28,304.67l10.81,10.68,1.38-1.94-10.88-10.77-1.32,2.02h0ZM358.29,318.51l10.79,10.67,1.38-1.93-10.86-10.75-1.31,2.01h0ZM372.3,332.36l10.77,10.65,1.37-1.92-10.84-10.73-1.3,2h0ZM386.31,346.21l10.75,10.63,1.36-1.9-10.82-10.71-1.29,1.99h0ZM400.32,360.05l3.55,3.51.51-2.73-2.78-2.75-1.28,1.97Z"/>
    <polygon class="cls-16" points="204.28 168.11 227.43 151.28 230.8 153.82 207.41 170.59 204.28 168.11"/>
    <path class="cls-8" d="M282.27,238.69l6.04-4.06-.97,4.17-3.93,2.72-3.37,11.23s-2.54,13.77-2.92,21.14c-.37,7.37,6.37,20.74,6.37,20.74,0,0-1.96-.24-4.11-2.63-.76-2.13-4.55-12.96-5.16-17.8-.68-5.39,3.06-24.21,4.12-26.68s2.91-6.35,2.91-6.35l1.02-2.48h0ZM301.46,316.79l-.06.05.03-.05h.02ZM292.66,312.08c-4.43-1.72-10-4.11-11.21-5.69-2.06-2.7-5.47-9.01-5.6-10.23-.11-1.04,1-5.26,1.34-6.51-1.46-2.04-2.74-4.29-2.74-4.29-3.88,5.71-3.99,12.07-3.99,12.07l4.74,8.52s4.85,4.42,8.41,5.28c1.46.35,5.17.64,9.04.84h0ZM473.5,99.38c-6.35-4.35-34.07-20.54-71.47-1.96,0,0,4.87-7.6,11.87-9.53,0,0-18.91-.96-34.09,13.7-18.74,7.79-26.96,28.19-26.96,28.19.75-1.31,1.87-2.77,3.2-4.29-3.55,4.88-8.27,11.94-11.2,18.57-2.12,2.85-3.31,4.68-3.31,4.68.12,38.85,12.64,57.36,12.64,57.36l-.38-1.93c.92,1.82,1.98,3.61,3.09,4.87-.12,4.58-.19,8.31-.19,8.31l-15.1-27.99.15-3.55-3.56-36.08c10.44-32.14,43.23-66.07,77.98-69.16,34.74-3.08,60.44,17.58,60.44,17.58l-3.1,1.22h0ZM472.02,358.06c-.27,3.88-.94,8.6-2.5,3.01-2.37-8.5-11.15-15.07-14.73-14.8-3.58.27-10.93.9-13.53-.27-2.6-1.16-9.23.18-10.84.63-1.05.29.09-1,1.51-2.31l3.81-1.51s2.52.08,5.62,1.17c3.1,1.09,8.56.5,9.37-.23h4.33s12.13,2.68,16.97,14.31h0ZM431.26,341.92l-6.27-1.05-14.17,11.34,1.79.88c.59-.3,1.23-.67,1.93-1.09,4.82-2.94,13.25-8,16.72-10.09h0ZM507.66,324.92c-5-1.28-13.97-3.41-16.56-2.84-2.86.63-5.45,6.67-6.45,9.26-2.92-2.18-5.22-3.28-5.22-3.28l5.11-10.22c10.87-1.39,18.23,2.28,23.12,7.06h0ZM384.05,226.62c-2.48,4.18-8.41,13.26-15.95,18.41,0,0-6.73,5.53-6.92,19.46-.14,10.37,5.23,16.28,7.99,18.62-4.34-1.7-8.42-6.51-9.8-17.29-1.71-13.39,5.25-21.85,9.21-24.74,3.96-2.89,9.59-8.36,12.9-17.3l2.58,2.84h0ZM230.22,342.34c9.94-2.36,37.38-9.41,55.65-19.24,0,0,6.92,3.46,14.67,6.83-3.41-3.22-6.65-7.11-8.95-11.65l-6.08-.35s-33.54,17-57.95,22.75c0,0,.92.62,2.67,1.66Z"/>
    <path class="cls-7" d="M384.46,123.14c-3.22,2.17-10.32,8.29-17.34,23.23,0,0-.57-2.37.39-6.28,2.7-4.03,10.34-15.21,12.87-16.74,1.55-.93,3-.69,4.08-.22h0ZM367.31,135.52c1.17-5.78,3.13-9.14,3.13-9.14-6.69,6.65-9.82,13.95-11.28,19.42-.72,6.43.11,11.63.11,11.63,1.39-10.17,5.32-17.71,8.04-21.91h0ZM357.85,145.38c-1.73,3.01-6.4,12.39-6.03,25.35-2.1-10-2.48-23.85,7.47-33.29,0,0-.93,3.66-1.44,7.94h0ZM458.41,341.29c2.54-1.79,8.32-5.69,12.84-7.49,0,0,11.99,3.73,20.67,15.75-5.63-14.6-20.39-19.25-20.39-19.25,0,0-11.54,1.87-17.56,10.19,0,0,1.83.07,4.44.8h0ZM317.17,292.45l4.89,2.34s8.68,8.07,6.14,28.54c2.9-7.52,3.19-15.88,1.67-21.5-2.68-9.92-9.55-14.71-9.55-14.71l-3.15,5.33h0ZM352.83,263.35c-1.56,1.96-4.73,6.21-6.17,10.04l-1.51-1.54c.2-2.88,5.56-11.02,5.56-11.02l2.09.4s-.07.75.03,2.12h0ZM366.72,219.8c1.2-.98,3.24-2.8,4.05-4.41,0,0-.22,6.98-8.43,13.59-4.23,3.41-7.19,9.07-9.07,13.75.79-5.43,2.83-11.75,7.75-16.23,2.44-2.22,4.29-4.5,5.7-6.7h0ZM372.43,177.37c-.28-.57-.58-1.12-.9-1.63,0,0,1.32,8.73-3.94,19.26-5.26,10.53-3.47,15.58-4.21,20.31-.74,4.74-2.32,6.95-2.32,6.95,0,0,2-1.11,4.29-3.78,2.71-6.53,2.87-15.36,5.84-23.84,2.64-7.56,2.08-13.67,1.24-17.27h0ZM358.54,223.55c.4-.89.72-1.83.92-2.81,0,0-6.11,5.24-15.99,1.21,0,0,.81.96,2.04,2.24,5.45,2.87,10.93.51,13.04-.64Z"/>
    <path class="cls-3" d="M493.67,376.4c.26-.18.54-.34.83-.5,18.27-9.93,36.33-20.24,54.16-30.94,4.04-2.42,9.12-1.64,12.24,1.9,8.81,9.99,17.56,20.04,25.97,30.37,8.95,10.99,17.53,22.27,26.04,33.6,3.13,4.16,2.4,10.05-1.64,13.33l-16.82,24.47c1.27,1.09,2.53,2.18,3.79,3.28,2.81,2.44,3.95,6,3.06,9.62-.28,1.14-.41,2.44-.52,3.61-.16,1.69-.28,3.38-.34,5.08-.09,2.21-.12,4.42-.12,6.64,0,3.45.18,6.9.47,10.34.3,3.52.85,7.02,1.66,10.46.8,3.42,1.91,6.76,3.31,9.98,1.28,2.94,2.94,5.66,5.02,8.1,2.87,3.37,3.12,8.08.62,11.73-3.08,4.51-17.25,21.64-24.79,19.03-9.31-3.23-18.63-6.45-28.03-9.42-1.72-.54-3.06-1.44-4.22-2.83-1.19-1.43-2.37-2.87-3.5-4.35-2.22,2.22-5.43,3.12-8.62,2.3-7.44-1.93-14.89-3.8-22.34-5.68-2.62-.66-5.26-1.21-7.91-1.76-2.29-.47-4.58-.88-6.88-1.26-1.69-.28-3.38-.59-5.07-.84-.78-.11-1.55-.23-2.33-.37-1.47-.26-2.79-.85-3.91-1.69-12.76-2.49-24.34-4.41-31.78-5.57-3.95,3.08-7.89,6.15-11.85,9.21-3.5,2.72-8.35,2.52-11.62-.46-4.6-4.19-9.22-8.37-13.86-12.52-10.74.08-21.2.41-31.36.91-.96.37-1.99.58-3.07.61-5.76.15-11.53.39-17.28.69-57.23,4.42-103.04,14.47-130.05,21.64-9.37,2.64-18.7,5.42-27.98,8.34-7.41,2.33-22.41-16.84-24.21-19.93-2.24-3.86-1.61-8.59,1.53-11.71.36-.41.7-.9,1.02-1.33,1.57-2.11,2.96-4.43,4.27-6.7,1.6-2.79,2.94-5.74,4.11-8.73.77-1.96,1.46-4.27,1.46-6.39v-47.84c-1.21.32-2.52.39-3.83.17-6.54.31-20.81-18.93-22.15-32.44v-46.97c0-5.25,4.2-9.55,9.45-9.68,28.52-.66,57.04-1.25,85.57-1.74,2.69-.05,5.03.89,6.95,2.77,1.92,1.89,2.89,4.21,2.89,6.9v7.05c2.18-1.89,4.37-3.76,6.56-5.63,3.88-3.3,7.8-6.56,11.72-9.82,2.96-2.45,5.93-4.89,8.9-7.33,1.15-.94,2.28-1.89,3.42-2.84,2.95-2.46,6.82-2.96,10.3-1.33,6.11,2.86,10.08,30.87,10.08,36.29v.91c12.96-11.79,26.05-23.45,39.21-35.02,2.92-2.57,6.84-3.15,10.38-1.55,3.54,1.6,5.69,4.93,5.69,8.82v24.4c.34.96.52,2,.52,3.08v17.68c2.38-.1,4.77-.19,7.15-.29v-10.84c0-3.21,1.41-5.97,4.02-7.85,14.16-10.21,28.35-20.4,42.47-30.67,3.53-2.57,8.16-2.5,11.62.17,13.32,10.31,26.55,20.72,39.62,31.34Z"/>
    <path class="cls-14" d="M198.79,518.73c0,.34.76-.49,2.26-2.5,1.51-2.04,3.14-4.59,4.89-7.66,1.75-3.05,3.31-6.39,4.73-10.01,1.42-3.62,2.13-6.92,2.13-9.93v-96.04c-1.84.17-4.02.49-6.48.97-2.51.49-5.02,1.31-7.53,2.45-2.47,1.12-4.81,2.69-6.99,4.64-2.18,1.97-3.85,4.61-4.98,7.89v-46.97c28.49-.66,56.98-1.25,85.51-1.74v37.64c-1.84-3.58-5.27-5.83-10.25-6.63-5.02-.81-11.25-.99-18.78-.49v86.77c0,4.38.83,8.19,2.51,11.43,1.67,3.22,3.72,5.63,5.77,7.58,2.43,2.32,5.06,4.26,8.24,5.48-20.37,4.99-40.71,10.75-61.04,17.14h0ZM282.84,496.75c16.65-3.01,33.3-5.67,49.99-7.66-2.68-1.4-4.98-2.88-6.99-4.45-1.84-1.44-3.48-3.12-4.89-5.02-1.43-1.93-2.13-3.94-2.13-6.09v-23.94c5.52-5,10.98-8.8,16.4-11.37,5.42-2.58,10.79-4.66,16.15-6.22v38.08c0,4.15-1.08,7.55-3.26,10.24-2.17,2.68-4.27,5.25-6.27,7.73,15.9-1.27,31.84-2.29,47.77-2.71-.84-.55-1.89-1.34-3.14-2.33-1.26-1-2.43-2.2-3.6-3.64-1.18-1.46-2.18-3.03-3.01-4.78-.84-1.74-1.26-3.64-1.26-5.69v-42.27c7.07-1.14,14.14-2.26,21.25-3.34v-19.52c-7.11.27-14.18.57-21.25.85v-55.25c-14.01,12.32-28.03,24.81-42,37.57,4.81,2.86,9.66,5.69,14.52,8.53v13.59c-5.86,1.67-11.35,3.79-16.52,6.33-5.16,2.54-10.42,5.72-15.77,9.53v-76.24s-1.14.96-3.47,2.88c-2.35,1.93-5.32,4.35-8.87,7.3-3.6,2.99-7.49,6.23-11.63,9.74-4.19,3.56-8.07,6.92-11.63,10.07-3.6,3.18-6.6,5.85-8.99,7.96-2.42,2.13-3.64,3.28-3.64,3.45,0,.3,1.01.77,3.01,1.38,1.97.6,4.23,1.31,6.74,2.12,2.84.93,6.07,1.93,9.75,2.96.17,13.48.52,25.79.75,36.91.1,4.7.04,9.46.12,14.23.08,4.76.17,9.15.25,13.12.08,4,.17,7.47.25,10.45.08,2.96.13,4.99.13,6.08,0,2.2-.46,4.43-1.38,6.73-.92,2.29-1.96,4.42-3.14,6.37-1.29,2.14-2.72,4.25-4.22,6.31h0ZM448.13,499.64c-14.18-12.93-28.36-25.53-42.5-37.66v-78.59c14.14-10.2,28.32-20.38,42.5-30.69,13.64,10.56,27.32,21.32,41,32.47v82.6c-13.68,10.54-27.36,21.29-41,31.86h0ZM462.35,456.5v-61.66c-4.77-3.45-9.5-6.88-14.22-10.29-4.77,3.18-9.54,6.35-14.27,9.5v60.6c4.73,4.23,9.5,8.47,14.27,12.74,4.73-3.62,9.45-7.24,14.22-10.88h0ZM506.61,495.66c0,.15.59-.28,1.76-1.29,1.17-1,2.46-2.51,3.89-4.45,1.41-1.9,2.78-4.2,4.02-6.84,1.23-2.63,1.84-5.57,1.84-8.74v-76.58c-6.36-4.53-12.68-9-18.99-13.36,18.16-9.88,36.31-20.22,54.51-31.14,8.58,9.72,17.25,19.67,25.73,30.08,8.67,10.65,17.19,21.84,25.81,33.3-11.09,9-22.17,17.5-33.26,25.74,6.65,5.36,13.3,11.03,20,16.83-.33,1.36-.57,3.03-.75,5-.15,1.57-.29,3.45-.38,5.61-.08,2.14-.13,4.47-.13,7.01,0,3.45.17,7.15.5,11.15.33,3.98.96,7.94,1.88,11.87.92,3.9,2.18,7.77,3.85,11.62,1.68,3.87,3.85,7.37,6.53,10.52-10.12-3.51-20.21-6.99-30.29-10.18-2.13-2.56-4.19-5.12-5.98-7.75-1.56-2.3-2.84-4.82-4.02-7.47-1.17-2.64-1.76-5.23-1.76-7.79,0-2.39-.06-4.83-.13-7.33-.06-2.5-.18-4.8-.33-6.9-.18-2.4-.25-4.74-.25-6.96-5.19-5.36-10.38-10.58-15.52-15.62,0,4.81.16,9.4.25,13.76.08,3.81.04,7.66.13,11.49.08,3.85.13,6.94.13,9.27,0,2.5.46,4.93,1.38,7.32.92,2.39,2.11,4.45,3.35,6.33,1.4,2.12,2.93,4.23,4.77,6.29-8.03-2.09-16.02-4.09-24.01-6.1-3.01-.76-5.94-1.36-8.87-1.97-2.92-.6-5.49-1.04-7.74-1.42-2.26-.38-4.14-.71-5.65-.93-1.51-.22-2.26-.36-2.26-.36h0ZM560.16,409.38c-5.02-5.97-10.04-11.81-15.02-17.51v32.19c4.98-4.85,10-9.74,15.02-14.67Z"/>
    <path class="cls-17" d="M206.32,393.55c-2.51.49-5.02,1.31-7.53,2.45-1.99.9-3.9,2.09-5.7,3.55v-37.99c26.4-.62,52.81-1.16,79.24-1.63,0,10.95.14,27.81-.11,31.94-1.16-.46-2.46-.81-3.88-1.04-3.95-.64-8.65-.88-14.14-.72-3.28-.11-6.91-.04-10.91.22v86.77c0,4.38.83,8.19,2.51,11.43,1.67,3.22,3.72,5.63,5.77,7.58,2.43,2.32,5.06,4.26,8.24,5.48-17.48,4.28-34.93,9.13-52.38,14.45,1.48-2.01,3.05-4.5,4.76-7.48,1.75-3.05,3.31-6.39,4.73-10.01,1.42-3.62,2.13-6.92,2.13-9.93v-96.04c-4.9.45-8.14.07-12.75.97h0ZM275.45,390.06l11.14,3.54c2.85.9,6.07,1.93,9.75,2.96.17,13.48.52,25.79.75,36.91.1,4.7.04,9.46.12,14.23.08,4.76.17,9.15.25,13.12.08,4,.17,7.47.25,10.45.08,2.96.13,4.99.13,6.08,0,2.2-.46,4.43-1.38,6.73-.92,2.29-1.96,4.42-3.14,6.37-1.03,1.7-2.14,3.38-3.31,5.04,14.26-2.49,28.52-4.68,42.81-6.38-2.68-1.4-4.98-2.88-6.99-4.45-1.84-1.44-3.48-3.12-4.89-5.02-1.43-1.93-2.13-3.94-2.13-6.09v-23.94c15.7-14.22,24.35-14.81,38.81-17.59v38.08c0,4.15-1.08,7.55-3.26,10.24-2.02,2.49-3.97,4.89-5.85,7.21,13.68-1.03,27.39-1.83,41.09-2.19-.84-.55-1.89-1.34-3.14-2.33-1.26-1-2.43-2.2-3.6-3.64-1.18-1.46-2.18-3.03-3.01-4.78-.84-1.74-1.26-3.64-1.26-5.69v-42.27c7.07-1.14,14.14-2.26,21.25-3.34v-19.28c-5.01.2-10,.41-14.99.61v-.26l-6.26.26v-49.73c-11.93,10.53-23.85,21.19-35.74,32.05,4.81,2.86,9.66,5.69,14.52,8.53v13.59c-6.89,1.96-34.14,12.72-38.56,15.86v-71.06c-1.78,1.46-3.81,3.13-6.08,5.01-3.6,2.99-7.49,6.23-11.63,9.74-8.55,7.26-16.93,14.37-25.66,21.44h0ZM405.62,403.79l.49-.02v19.52l-.49.07v-19.58h0ZM451.51,497.02c-13.22-12.01-26.44-23.73-39.62-35.04v-78.59c13.07-9.42,26.17-18.83,39.27-28.34,12.63,9.81,25.3,19.8,37.97,30.12v82.6c-12.55,9.67-25.1,19.51-37.62,29.24h0ZM468.61,456.5v-61.66c-4.77-3.45-9.5-6.88-14.22-10.29l-3.26,2.17-3.01-2.17c-4.77,3.18-9.54,6.35-14.27,9.5v60.6c4.73,4.23,9.5,8.47,14.27,12.74l3.37-2.58,2.89,2.58c4.73-3.62,9.45-7.24,14.22-10.88h0ZM512.87,495.66c0,.15.59-.28,1.76-1.29,1.17-1,2.46-2.51,3.89-4.45,1.41-1.9,2.78-4.2,4.02-6.84,1.23-2.63,1.84-5.57,1.84-8.74v-76.58c-6.36-4.53-12.68-9-18.99-13.36,16.79-9.13,33.58-18.67,50.41-28.69,7.87,8.94,15.8,18.09,23.57,27.63,8.67,10.65,17.19,21.84,25.81,33.3-11.09,9-22.17,17.5-33.26,25.74,6.65,5.36,13.3,11.03,20,16.83-.33,1.36-.57,3.03-.75,5-.15,1.57-.29,3.45-.38,5.61-.08,2.14-.13,4.47-.13,7.01,0,3.45.17,7.15.5,11.15.33,3.98.96,7.94,1.88,11.87.92,3.9,2.18,7.77,3.85,11.62,1.17,2.7,2.58,5.22,4.23,7.56-7.25-2.49-14.49-4.94-21.73-7.22-2.13-2.56-4.19-5.12-5.98-7.75-1.56-2.3-2.84-4.82-4.02-7.47-1.17-2.64-1.76-5.23-1.76-7.79,0-2.39-.06-4.83-.13-7.33-.06-2.5-.18-4.8-.33-6.9-.18-2.4-.25-4.74-.25-6.96-5.19-5.36-10.38-10.58-15.52-15.62,0,2.14.03,4.23.08,6.28-2.12-2.12-4.23-4.21-6.34-6.28,0,4.81.16,9.4.25,13.76.08,3.81.04,7.66.13,11.49.08,3.85.13,6.94.13,9.27,0,2.5.46,4.93,1.38,7.32.92,2.39,2.11,4.45,3.35,6.33.94,1.42,1.93,2.84,3.04,4.24-5.35-1.36-10.68-2.71-16.02-4.05-3.01-.76-5.94-1.36-8.87-1.97-2.92-.6-5.49-1.04-7.74-1.42-2.26-.38-4.14-.71-5.65-.93-1.51-.22-2.26-.36-2.26-.36h0ZM566.42,409.38c-5.02-5.97-10.04-11.81-15.02-17.51v7.23c-2.09-2.43-4.18-4.84-6.26-7.23v32.19l6.26-6.11v6.11c4.98-4.85,10-9.74,15.02-14.67Z"/>
    <path class="cls-20" d="M254.22,384.17c4.05-.11,8.19-.04,12.25.41v-1.71c-2.01-.06-4.02-.04-6,.01-3.76-.12-7.54,0-11.3.24-1.16.08-2.23.48-3.11,1.12,2.72-.12,5.45-.15,8.16-.07h0ZM205.27,367.22l-6.24.14v22.12c2-.75,4.06-1.35,6.16-1.75l.08-.02v-20.49h0ZM207.84,387.32c3.59-.41,7-.3,10.68-.65,1.72-.16,3.27.36,4.55,1.52,1.28,1.17,1.94,2.66,1.94,4.39v96.04c0,4.16-1.03,8.25-2.54,12.1-.71,1.8-1.46,3.58-2.28,5.33,2.17-.63,4.34-1.25,6.51-1.86.72-1.57,1.39-3.16,2.02-4.76,1.51-3.85,2.54-7.95,2.54-12.1v-96.04c0-1.73-.66-3.22-1.94-4.39-1.28-1.17-2.82-1.68-4.55-1.52-4.58.42-8.72.16-13.33,1.05-1.21.24-2.41.53-3.6.89h0ZM317.72,485.07l-.29-.34c-3.25.49-6.49.99-9.73,1.51.18-.42.35-.83.52-1.25,1.15-2.86,1.81-5.85,1.81-8.94,0-2.08-.07-4.17-.13-6.25-.1-3.47-.18-6.93-.25-10.4-.09-4.36-.17-8.73-.25-13.1-.08-4.75-.03-9.5-.13-14.26-.26-12.29-.6-24.57-.75-36.85-.03-2.68-1.76-4.93-4.35-5.65-3.21-.89-6.37-1.89-9.54-2.9l-.72-.23c5.8-4.82,11.54-9.69,17.29-14.57l1.68-1.43v-3.95c-2.65,2.21-5.3,4.43-7.93,6.66-5.74,4.88-11.49,9.75-17.29,14.57l.72.23c3.17,1.01,6.34,2,9.54,2.9,2.58.72,4.31,2.97,4.35,5.65.15,12.29.49,24.57.75,36.85.1,4.75.04,9.51.13,14.26.08,4.37.16,8.73.25,13.1.07,3.47.15,6.94.25,10.4.06,2.08.13,4.17.13,6.25,0,3.08-.66,6.08-1.81,8.94-.17.42-.34.84-.52,1.25,5.41-.87,10.84-1.7,16.27-2.46h0ZM351.13,427.17c1.78-.34,3.58-.66,5.37-1.01,1.8-.35,3.49.09,4.9,1.25,1.41,1.17,2.16,2.74,2.16,4.58v38.08c0,3.76-.72,7.38-2.4,10.62,4.94-.31,9.87-.59,14.82-.81-.19-.31-.38-.63-.56-.95-2.67.14-5.34.3-8.01.47,1.67-3.25,2.4-6.86,2.4-10.62v-38.08c0-1.83-.74-3.41-2.16-4.58-1.41-1.17-3.1-1.6-4.9-1.25-3.9.75-7.79,1.4-11.62,2.3h0ZM382.12,420.05c3.93-.63,7.86-1.25,11.79-1.85v-.32c-3.34.53-6.68,1.06-10.01,1.6-.63.1-1.23.3-1.77.58h0ZM372.66,372.36c-4.55,4.07-9.09,8.16-13.61,12.26,2.52,1.48,5.05,2.95,7.57,4.43,1.87,1.1,2.94,2.96,2.94,5.12v13.59c0,2.69-1.72,4.97-4.31,5.71-2.62.75-5.32,1.77-7.87,2.72-3.93,1.46-7.85,2.99-11.74,4.56-3.76,1.52-7.52,3.09-11.22,4.75-1.64.74-4.48,1.93-5.92,2.96-1.63,1.16-3.59,1.43-5.41.77,1.53-.89,3.73-1.81,5.09-2.43,3.7-1.67,7.46-3.23,11.22-4.75,3.89-1.57,7.8-3.1,11.74-4.56,2.55-.95,5.25-1.97,7.87-2.72,2.59-.74,4.31-3.02,4.31-5.71v-13.59c0-2.17-1.07-4.03-2.94-5.12-2.52-1.48-5.05-2.95-7.57-4.43,6.59-5.98,13.21-11.92,19.85-17.83v4.28h0ZM451.8,489.27l4.12-3.21c-10.51-9.48-21.12-18.86-31.85-28.1v-72.82c9.7-6.99,19.42-13.98,29.11-20.99l-2.15-1.67c-11.05,8.01-22.14,15.97-33.21,23.95v72.82c11.45,9.86,22.77,19.88,33.98,30.02h0ZM450.13,378.95l.94-.63c1.99-1.33,4.44-1.36,6.43-.11,2.07-1.29,4.61-1.21,6.61.23,4.75,3.43,9.48,6.87,14.23,10.3,1.59,1.15,2.46,2.84,2.46,4.81v61.66c0,1.91-.81,3.56-2.33,4.72-4.74,3.62-9.48,7.25-14.22,10.87-1.68,1.29-3.81,1.56-5.68.86,4.55-3.48,9.1-6.97,13.65-10.44,1.52-1.16,2.33-2.81,2.33-4.72v-61.66c0-1.97-.86-3.66-2.46-4.81-4.74-3.43-9.48-6.87-14.23-10.3-2-1.44-4.53-1.52-6.61-.23-.36-.23-.74-.41-1.13-.56h0ZM524.6,491.58c1.71.3,3.42.62,5.13.98,3.05.63,6.09,1.27,9.11,2.03.79.2,1.57.39,2.36.59-.35-.98-.63-1.98-.86-2.99-1.45-.32-2.91-.62-4.37-.92-1.71-.35-3.42-.67-5.13-.98,1.25-1.91,2.35-3.93,3.32-5.99,1.65-3.53,2.4-7.37,2.4-11.26v-76.58c0-1.98-.88-3.69-2.49-4.84-3.72-2.65-7.45-5.3-11.19-7.92,11.1-6.13,22.13-12.4,33.07-18.81l-1.37-1.57c-12.54,7.41-25.19,14.63-37.94,21.67,3.74,2.63,7.46,5.27,11.19,7.92,1.61,1.15,2.49,2.85,2.49,4.84v76.58c0,3.89-.75,7.73-2.4,11.26-.97,2.06-2.07,4.08-3.32,5.99h0ZM547.25,446.42c.52-.49,1.14-.9,1.84-1.19,1.84-.77,3.82-.6,5.44.42.26-.16.54-.3.83-.42,2.25-.95,4.71-.48,6.45,1.23,5.28,5.17,10.49,10.42,15.63,15.73,1.11,1.15,1.67,2.53,1.67,4.13,0,2.17.07,4.35.24,6.52.18,2.39.29,4.79.35,7.19.06,2.49.13,4.99.13,7.48,0,1.87.49,3.68,1.25,5.39,1,2.25,2.11,4.5,3.5,6.54,1.07,1.57,2.22,3.09,3.41,4.58.45,1.63.95,3.24,1.51,4.83-2.21-.73-4.42-1.45-6.63-2.15-1.58-1.93-3.13-3.9-4.53-5.96-1.39-2.04-2.5-4.28-3.5-6.54-.75-1.7-1.25-3.52-1.25-5.39,0-2.49-.07-4.99-.13-7.48-.06-2.4-.17-4.8-.35-7.19-.16-2.17-.24-4.34-.24-6.52,0-1.6-.56-2.98-1.67-4.13-5.14-5.31-10.35-10.56-15.63-15.73-1.74-1.71-4.2-2.18-6.45-1.23-.29.12-.57.26-.83.42-.33-.21-.67-.38-1.03-.52h0ZM547.25,386.3c.57-.55,1.26-.98,2.05-1.28,1.79-.67,3.69-.47,5.22.51.32-.2.67-.37,1.04-.51,2.36-.89,4.9-.24,6.56,1.66,5.08,5.82,10.12,11.68,15.09,17.6,2,2.38,1.83,5.88-.39,8.06-5,4.91-10.02,9.8-15.03,14.68-1.7,1.65-4.06,2.14-6.25,1.3h0c5.02-4.9,10.03-9.79,15.03-14.69,2.22-2.18,2.39-5.68.39-8.06-4.97-5.91-10.01-11.77-15.09-17.6-1.66-1.9-4.2-2.54-6.56-1.66-.37.14-.72.31-1.04.51-.33-.21-.67-.38-1.03-.52Z"/>
    <path class="cls-3" d="M374.33,175.15s11.01,4.83,12.72,4.94c1.72.11,3.71-8.86,3.71-8.86,0,0,23.26.26,24.95-1.34,1.69-1.61,14.45-22.31,15.41-30.98.96-8.67,8.18,25.77,8.66,28.35.48,2.58-4.58,13.92-7.54,17.74-2.96,3.82-19.49,14.14-19.49,14.14,0,0-12.71.29-14.62-.19-1.91-.48-21.5-14.43-21.5-14.43l-2.3-9.37Z"/>
    <path class="cls-11" d="M431.76,151.16s.51,21.84-.71,25.49c-1.22,3.66-16.15,16.86-16.15,16.86,0,0,13.71-13.91,14.83-18.89,1.12-4.98,2.03-23.46,2.03-23.46Z"/>
    <path class="cls-11" d="M413.87,172.74s-10.2,1.17-20.41.17c0,0-3.15,7.16-4.57,9.13-1.42,1.97-12.81-4.37-12.81-4.37,0,0,7.88,6.22,11.89,6.03,0,0,2.59.25,3.63-2.22,1.05-2.46,2.71-6.77,2.71-6.77,0,0,13.3,1.05,16.56-.19,3.26-1.23,3-1.79,3-1.79Z"/>
    <path class="cls-11" d="M414.73,145.12s-1.96,2.52-2.55,4.98c0,0-6.66,3.7-8.35,3.6s.15-10.54,3.28-13.51c3.13-2.97,7.95-4.45,8.69-3.23.74,1.22-1.06,8.15-1.06,8.15Z"/>
    <path class="cls-10" d="M405.25,153.4c-.4.14-.75.23-1.04.28-.34-.1-.62-.25-.85-.44-.49-1.35.08-5.37,1.3-8.73,1.33-2.37,3.07-4.63,4.67-6.02,1.61-1.01,3.3-1.67,4.56-1.87,1.01.13,1.7.67,2.06,1.04.01.15.02.32.01.5-7.4,4.08-10.17,13.18-10.72,15.25Z"/>
    <path class="cls-3" d="M391.1,149.51s5.27,1.33,6.93,1.16c.41-.04.95-.87,1.58-2.14.47.25,1,.69,1.5,1.42,1.33,1.94-1.44,9.26-1.44,9.26l4.74-4.44c3.15-.8,7.76-4.66,7.76-4.66l-5.22,2.05c-6.4.78-.75-11.01,7.46-14.43,1.01,3.11-.06,8.2-.06,8.2,3.03-4.09,4.31-11.19,4.31-11.19-7.94-1.09-12.89,2.69-17.49,10.37,1.78-4.1,3.96-9.33,6.15-11.48,3.83-3.76,8.91-3.51,8.91-3.51,0,0-7.73-1.67-11.5.82,0,0-5.19,8.32-7.61,14.15s-6.02,4.42-6.02,4.42Z"/>
    <path class="cls-11" d="M376.28,164.05s3.33-.49,6.55.17c3.22.66,6.08-5.86.8-7.98-.94-.38-1.87-.59-2.77-.68-.36.21-.88.42-1.58.65-5.15,1.65-6.63,3.43-7.06,4.39-.09.29-.15.52-.17.64h0s0,0,0,0c0,.05,0,.07,0,.07.1.15,4.22,2.74,4.22,2.74Z"/>
    <path class="cls-10" d="M386.12,162.1c.89-1.93.57-4.64-2.49-5.87-.94-.38-1.87-.59-2.77-.68-.36.21-.88.42-1.58.65-4.73,1.51-6.37,3.14-6.93,4.14,7.69-2.36,12.08.3,13.77,1.75Z"/>
    <path class="cls-3" d="M378.63,164.35s-4.84.87-7.23-3c-2.39-3.87,2.09-3.79,2.09-3.79,0,0-.14.58-.1,1.42,3.6-3.16,8.56-7.14,13.15-2.13,0,0,2.1,3.04,1.65,6.37,0,0-4.09,1.78-7.58,1.3,9.77-1.53,4.26-8.8-1.01-7.88-3.14.55-5.36,1.84-6.2,2.39.1,1.68.98,4.33,5.24,5.31Z"/>
    <path class="cls-1" d="M410.53,140.99c.95-1.07,2.11-1.59,2.6-1.16.49.43.12,1.65-.83,2.73-.95,1.07-2.11,1.59-2.6,1.16-.49-.43-.12-1.65.83-2.73Z"/>
    <path class="cls-1" d="M376.7,161.01c1.43.14,2.63-.28,2.69-.94.06-.65-1.04-1.29-2.47-1.43-1.43-.13-2.63.28-2.69.94-.06.65,1.04,1.29,2.47,1.43Z"/>
  </g>
</svg>